<?xml version="1.0" encoding="UTF-8" standalone="no"?><!DOCTYPE svg PUBLIC "-//W3C//DTD SVG 1.1//EN" "http://www.w3.org/Graphics/SVG/1.1/DTD/svg11.dtd"><svg width="100%" height="100%" viewBox="0 0 757 431" version="1.1" xmlns="http://www.w3.org/2000/svg" xmlns:xlink="http://www.w3.org/1999/xlink" xml:space="preserve" style="fill-rule:evenodd;clip-rule:evenodd;stroke-linejoin:round;stroke-miterlimit:1.41421;"><g><g><path d="M284.497,0.888c1.445,0.006 2.889,0.027 4.333,0.069c2.858,0.084 5.713,0.243 8.563,0.478c8.741,0.721 17.423,2.16 25.922,4.328c17.333,4.421 33.933,11.889 48.486,22.322c2.055,1.474 4.068,3.006 6.035,4.595c2.24,1.81 4.42,3.695 6.532,5.654c4.076,3.778 7.901,7.829 11.419,12.133c3.926,4.804 7.469,9.923 10.547,15.312c3.533,6.184 6.449,12.723 8.641,19.501c2.588,8.005 4.158,16.334 4.635,24.735c0.309,5.443 0.166,10.912 -0.43,16.331c-0.506,4.603 -1.34,9.169 -2.49,13.655c-1.559,6.083 -3.699,12.015 -6.355,17.705c-2.458,5.264 -5.357,10.32 -8.63,15.12c-8.258,12.107 -18.869,22.53 -30.837,30.956c-14.889,10.483 -31.86,17.894 -49.544,22.154c-11.907,2.868 -24.147,4.313 -36.392,4.379c-10.963,0.058 -21.934,-0.987 -32.68,-3.169c-16.697,-3.392 -32.863,-9.538 -47.428,-18.406c-2.153,-1.311 -4.271,-2.681 -6.348,-4.109c-3.984,-2.74 -7.821,-5.694 -11.478,-8.857c-1.24,-1.072 -2.459,-2.168 -3.655,-3.288c-0.398,-0.371 -0.793,-0.746 -1.185,-1.123c-0.153,-0.146 -0.303,-0.3 -0.463,-0.44c-0.057,-0.049 -0.115,-0.095 -0.175,-0.139c-0.169,-0.122 -0.351,-0.223 -0.545,-0.301c-0.511,-0.207 -1.085,-0.247 -1.619,-0.112c-0.261,0.066 -0.507,0.174 -0.736,0.315c-0.321,0.203 -0.644,0.402 -0.967,0.602c-1.367,0.836 -2.748,1.648 -4.148,2.426c-3.222,1.789 -6.534,3.417 -9.918,4.875c-0.044,0.269 -0.044,0.268 -0.09,0.536c-0.339,1.84 -0.82,3.649 -1.351,5.441c-0.508,1.72 -1.064,3.425 -1.639,5.123c-0.755,2.232 -1.545,4.452 -2.344,6.669c-0.911,2.529 -1.834,5.054 -2.746,7.583c-0.265,0.738 -0.529,1.476 -0.792,2.215c-0.908,2.562 -1.805,5.129 -2.61,7.726c-0.306,0.99 -0.6,1.985 -0.864,2.987c-0.238,0.909 -0.452,1.824 -0.593,2.753l-0.035,0.213c-0.019,0.096 -0.037,0.191 -0.058,0.287c-0.063,0.285 -0.142,0.567 -0.236,0.843c-0.309,0.905 -0.782,1.752 -1.391,2.489c-0.545,0.661 -1.198,1.231 -1.925,1.683c-0.661,0.411 -1.382,0.724 -2.134,0.925c-1.028,0.276 -2.111,0.341 -3.166,0.192c-1.224,-0.174 -2.403,-0.638 -3.418,-1.346c-0.477,-0.333 -0.918,-0.718 -1.311,-1.147c-0.198,-0.217 -0.379,-0.446 -0.559,-0.678c-0.181,-0.234 -0.358,-0.469 -0.534,-0.707c-0.75,-1.015 -1.458,-2.061 -2.144,-3.121c-1.162,-1.794 -2.263,-3.628 -3.339,-5.474c-1.443,-2.476 -2.838,-4.98 -4.223,-7.488c-1.619,-2.941 -3.221,-5.89 -4.841,-8.83c-0.979,-1.771 -1.962,-3.54 -2.977,-5.29c-0.763,-1.316 -1.54,-2.625 -2.378,-3.895l-0.037,-0.055c-0.422,-0.001 -0.845,-0.005 -1.267,-0.01c-0.453,-0.007 -0.905,-0.016 -1.357,-0.026c-1.909,-0.05 -3.817,-0.138 -5.721,-0.274c-3.857,-0.274 -7.701,-0.731 -11.514,-1.372c-10.284,-1.729 -20.347,-4.802 -29.805,-9.201c-11.81,-5.492 -22.686,-13.059 -31.705,-22.475c-3.591,-3.749 -6.882,-7.786 -9.806,-12.076c-3.172,-4.653 -5.91,-9.603 -8.132,-14.778c-1.764,-4.112 -3.203,-8.363 -4.284,-12.705c-1.095,-4.396 -1.824,-8.884 -2.173,-13.401c-0.591,-7.639 -0.102,-15.357 1.454,-22.859c1.306,-6.29 3.359,-12.42 6.073,-18.242c2.341,-5.02 5.168,-9.809 8.404,-14.304c2.808,-3.901 5.922,-7.58 9.288,-11.01c2.995,-3.052 6.19,-5.908 9.549,-8.555c7.056,-5.56 14.83,-10.194 23.035,-13.845c6.283,-2.796 12.821,-5.017 19.5,-6.653c10.279,-2.518 20.888,-3.648 31.466,-3.43c6.374,0.132 12.739,0.756 19.015,1.882c7.945,1.427 15.748,3.66 23.23,6.694c3.491,1.415 6.911,3.005 10.241,4.766c0.961,0.508 1.915,1.03 2.86,1.567c0.404,0.229 0.806,0.461 1.207,0.695c0.196,0.115 0.391,0.232 0.59,0.343c0.106,0.058 0.213,0.113 0.321,0.166c0.551,0.264 1.131,0.461 1.731,0.576c1.455,0.282 2.988,0.091 4.33,-0.539c0.623,-0.292 1.195,-0.676 1.709,-1.133c0.309,-0.28 0.616,-0.562 0.926,-0.842c1.185,-1.066 2.387,-2.113 3.61,-3.136c2.57,-2.148 5.224,-4.197 7.951,-6.142c14.444,-10.305 30.891,-17.697 48.061,-22.098c8.439,-2.162 17.06,-3.606 25.74,-4.342c2.871,-0.243 5.747,-0.409 8.627,-0.498c1.531,-0.047 3.063,-0.071 4.595,-0.077c0.299,-0.001 0.598,-0.001 0.896,-0.001Zm-0.86,12.924c-2.95,0.012 -5.898,0.103 -8.843,0.286c-6.017,0.373 -12.013,1.114 -17.939,2.229c-16.834,3.166 -33.145,9.368 -47.596,18.602c-3.895,2.488 -7.65,5.195 -11.233,8.115c-1.205,0.983 -2.39,1.989 -3.555,3.02c-0.588,0.521 -1.167,1.052 -1.749,1.579c-0.154,0.136 -0.153,0.136 -0.308,0.271c-0.464,0.395 -0.941,0.774 -1.438,1.128c-0.978,0.697 -2.018,1.305 -3.105,1.815c-2.017,0.946 -4.191,1.551 -6.407,1.782c-2.216,0.232 -4.468,0.09 -6.637,-0.419c-1.3,-0.305 -2.569,-0.742 -3.782,-1.3c-0.556,-0.256 -1.097,-0.54 -1.629,-0.843c-0.411,-0.24 -0.823,-0.481 -1.236,-0.719c-1.429,-0.815 -2.876,-1.6 -4.343,-2.344c-2.982,-1.512 -6.041,-2.872 -9.16,-4.076c-11.067,-4.274 -22.861,-6.582 -34.712,-6.973c-9.717,-0.322 -19.481,0.626 -28.939,2.889c-12.36,2.956 -24.209,8.165 -34.575,15.539c-1.506,1.071 -2.98,2.187 -4.418,3.348c-2.895,2.336 -5.645,4.852 -8.218,7.538c-2.923,3.053 -5.619,6.326 -8.033,9.796c-2.698,3.876 -5.043,7.999 -6.966,12.313c-2.242,5.032 -3.904,10.323 -4.906,15.742c-1.189,6.427 -1.451,13.024 -0.78,19.526c0.407,3.946 1.16,7.855 2.242,11.672c1.053,3.715 2.418,7.341 4.061,10.836c4.004,8.514 9.652,16.206 16.374,22.773c8.231,8.04 18.043,14.398 28.606,18.925c9.126,3.91 18.82,6.459 28.674,7.649c3.17,0.383 6.357,0.626 9.549,0.73c1.579,0.052 3.158,0.066 4.737,0.055l0.234,0.001c0.285,0.01 0.568,0.024 0.852,0.054c0.561,0.06 1.116,0.168 1.659,0.322c1.622,0.462 3.115,1.343 4.305,2.538c0.2,0.202 0.392,0.413 0.575,0.631c0.221,0.264 0.427,0.539 0.631,0.815c0.463,0.627 0.9,1.273 1.324,1.926c0.991,1.529 1.917,3.101 2.825,4.68c0.944,1.643 1.865,3.299 2.781,4.958c1.621,2.941 3.224,5.891 4.843,8.832c1.104,1.999 2.217,3.993 3.351,5.975l0.146,0.254c0.167,-0.497 0.338,-0.993 0.509,-1.489c0.256,-0.739 0.514,-1.478 0.774,-2.215c1.342,-3.789 2.73,-7.561 4.09,-11.343c0.262,-0.731 0.523,-1.463 0.782,-2.195c0.851,-2.415 1.69,-4.836 2.442,-7.284c0.273,-0.889 0.535,-1.783 0.771,-2.682c0.18,-0.683 0.347,-1.37 0.479,-2.065c0.049,-0.262 0.09,-0.525 0.13,-0.789c0.034,-0.199 0.034,-0.199 0.071,-0.397c0.066,-0.327 0.141,-0.652 0.231,-0.974c0.161,-0.573 0.364,-1.134 0.606,-1.678c0.906,-2.039 2.369,-3.815 4.196,-5.096c0.545,-0.382 1.121,-0.72 1.72,-1.009c0.32,-0.154 0.647,-0.29 0.972,-0.431c0.147,-0.064 0.294,-0.129 0.442,-0.193c0.293,-0.13 0.586,-0.26 0.878,-0.391c0.873,-0.396 1.741,-0.801 2.602,-1.221c1.708,-0.831 3.391,-1.713 5.047,-2.643c0.957,-0.538 1.905,-1.093 2.843,-1.663c0.482,-0.294 0.96,-0.596 1.441,-0.892c0.144,-0.087 0.289,-0.172 0.436,-0.256c0.388,-0.217 0.783,-0.421 1.187,-0.605c0.897,-0.41 1.832,-0.734 2.79,-0.966c1.723,-0.417 3.515,-0.536 5.278,-0.351c1.763,0.184 3.492,0.673 5.09,1.439c0.939,0.449 1.832,0.994 2.662,1.622c0.399,0.303 0.782,0.627 1.152,0.964c0.199,0.186 0.393,0.375 0.589,0.563c0.264,0.253 0.529,0.505 0.795,0.756c0.893,0.838 1.796,1.664 2.714,2.474c1.855,1.635 3.763,3.21 5.718,4.724c1.783,1.38 3.605,2.709 5.462,3.986c13.906,9.562 29.743,16.202 46.19,19.893c10.518,2.36 21.297,3.517 32.075,3.519c10.761,0.001 21.527,-1.156 32.03,-3.509c16.113,-3.611 31.64,-10.051 45.344,-19.297c10.894,-7.351 20.635,-16.49 28.296,-27.191c2.922,-4.081 5.537,-8.384 7.786,-12.873c2.55,-5.09 4.628,-10.417 6.162,-15.901c1.168,-4.174 2.021,-8.435 2.543,-12.738c0.545,-4.484 0.73,-9.012 0.56,-13.526c-0.277,-7.317 -1.507,-14.59 -3.633,-21.596c-1.841,-6.063 -4.345,-11.919 -7.413,-17.462c-2.706,-4.889 -5.846,-9.535 -9.341,-13.894c-3.1,-3.867 -6.477,-7.509 -10.081,-10.91c-3.284,-3.099 -6.756,-6 -10.381,-8.694c-1.846,-1.372 -3.731,-2.691 -5.652,-3.955c-13.95,-9.184 -29.715,-15.499 -46.04,-18.929c-6.549,-1.377 -13.194,-2.291 -19.869,-2.753c-3.299,-0.228 -6.604,-0.341 -9.911,-0.354c-0.275,-0.001 -0.55,-0.001 -0.826,0Z" style="fill:#767676;fill-rule:nonzero;"/><path d="M175.117,185.256c3.563,-2.275 8.225,-1.786 11.238,1.178c23.706,22.916 58.7,37.421 97.707,37.421c71.332,0 129.244,-48.506 129.244,-108.253c0,-59.746 -57.912,-108.253 -129.244,-108.253c-37.842,0 -71.907,13.652 -95.553,35.392c-4.381,4.012 -10.869,4.689 -15.984,1.669c-16.014,-9.454 -35.385,-14.968 -56.238,-14.968c-55.181,0 -99.981,38.607 -99.981,86.16c0,47.553 44.8,86.161 99.981,86.161c0.364,0 0.728,-0.002 1.091,-0.005c1.062,-0.01 2.068,0.473 2.725,1.306c4.526,5.744 15.307,28.42 21.476,36.248c0.362,0.46 0.963,0.659 1.527,0.508c0.565,-0.151 0.985,-0.625 1.069,-1.203c1.278,-8.821 11.797,-32.508 13.065,-41.271c0.296,-2.039 1.635,-3.776 3.532,-4.58c5.039,-2.157 9.835,-4.675 14.345,-7.51Z" style="fill:#fffefb;"/><g><path d="M265.272,193.1c-2.416,-0.247 -4.672,1.24 -5.398,3.558c-0.692,2.197 -1.421,4.383 -2.187,6.556c-0.184,0.518 -0.122,1.092 0.167,1.559c0.289,0.468 0.774,0.78 1.32,0.848c0,0 0,0 0,0c7.034,0.873 14.114,1.365 21.201,1.492c0.519,0.009 0.99,-0.304 1.183,-0.786c0,0 0,-0.001 0,-0.001c1.149,-2.87 2.225,-5.769 3.229,-8.692c0,-0.001 0,-0.001 0,-0.001c0.285,-0.83 0.154,-1.746 -0.352,-2.462c-0.506,-0.716 -1.326,-1.146 -2.203,-1.155c-0.272,-0.002 -0.544,-0.005 -0.816,-0.009c-5.391,-0.074 -10.779,-0.374 -16.144,-0.907Z" style="fill:#faf3d2;stroke:#e9e9e9;stroke-width:1px;"/><path d="M297.098,199.622c-0.542,1.637 -0.223,3.437 0.849,4.787c1.072,1.35 2.752,2.069 4.469,1.912c1.762,-0.159 3.522,-0.342 5.278,-0.548c3.975,-0.468 7.935,-1.056 11.873,-1.769c1.787,-0.327 3.266,-1.577 3.886,-3.284c0.373,-1.026 0.736,-2.054 1.09,-3.086c0.079,-0.229 0.157,-0.458 0.234,-0.686c0.55,-1.618 0.197,-3.405 -0.926,-4.693c-1.122,-1.287 -2.845,-1.88 -4.522,-1.555c0,0 -0.001,0 -0.001,0c-6.271,1.214 -12.607,2.085 -18.971,2.631c0,0 0,0 0,0c-0.795,0.069 -1.468,0.614 -1.699,1.378c-0.5,1.644 -1.019,3.282 -1.56,4.913Z" style="fill:#faf3d2;stroke:#e9e9e9;stroke-width:1px;"/><path d="M223.714,183.793c-0.552,-0.201 -1.163,-0.159 -1.682,0.115c-0.519,0.275 -0.897,0.757 -1.041,1.326c-0.355,1.405 -0.725,2.806 -1.109,4.203c-0.153,0.558 -0.309,1.115 -0.467,1.671c-0.742,2.62 0.699,5.362 3.278,6.237c0.281,0.096 0.563,0.191 0.846,0.285c4.847,1.621 9.768,3.022 14.739,4.214c0.627,0.151 1.255,0.298 1.884,0.442c2.537,0.582 5.107,-0.834 5.969,-3.29c0.16,-0.454 0.318,-0.908 0.474,-1.362c0.166,-0.486 0.331,-0.972 0.494,-1.459c0.459,-1.37 0.318,-2.87 -0.39,-4.129c-0.707,-1.26 -1.914,-2.162 -3.322,-2.483c-0.684,-0.155 -1.367,-0.314 -2.049,-0.478c-5.967,-1.431 -11.858,-3.187 -17.623,-5.292c-0.001,0 -0.001,0 -0.001,0Z" style="fill:#faf3d2;stroke:#e9e9e9;stroke-width:1px;"/><path d="M339.533,190.892c-0.516,1.833 0.029,3.8 1.413,5.106c1.384,1.306 3.38,1.735 5.179,1.114c3.299,-1.142 6.564,-2.385 9.784,-3.734c1.978,-0.828 3.939,-1.697 5.881,-2.608c1.251,-0.589 2.21,-1.659 2.659,-2.967c1.275,-3.748 2.412,-7.543 3.414,-11.373c0.19,-0.735 -0.077,-1.513 -0.68,-1.975c-0.602,-0.463 -1.423,-0.52 -2.084,-0.146c-0.001,0 -0.001,0 -0.002,0c-6.1,3.455 -12.489,6.394 -19.045,8.874c-0.795,0.301 -1.593,0.595 -2.394,0.883c-1.581,0.568 -2.783,1.877 -3.214,3.501c-0.165,0.624 -0.334,1.248 -0.505,1.87c-0.133,0.486 -0.269,0.971 -0.406,1.455Z" style="fill:#faf3d2;stroke:#e9e9e9;stroke-width:1px;"/><path d="M196.315,170.214c-0.233,-0.153 -0.531,-0.167 -0.777,-0.037c-0.247,0.129 -0.403,0.383 -0.409,0.661c-0.004,0.202 -0.008,0.403 -0.012,0.604c-0.069,3.396 -0.152,6.791 -0.252,10.186c-0.057,1.906 0.95,3.686 2.615,4.617c1.184,0.657 2.378,1.298 3.581,1.922c1.374,0.713 2.998,0.765 4.415,0.141c1.416,-0.624 2.474,-1.857 2.876,-3.352c0.456,-1.697 0.888,-3.4 1.298,-5.108c0.254,-1.064 -0.256,-2.162 -1.232,-2.655c0,0 0,0 0,0c-4.159,-2.1 -8.209,-4.419 -12.103,-6.978c0,-0.001 0,-0.001 0,-0.001Z" style="fill:#faf3d2;stroke:#e9e9e9;stroke-width:1px;"/><path d="M119.343,188.527c0.228,0.786 0.963,1.313 1.78,1.276c0,0 0,0 0,0c0.988,-0.044 1.975,-0.101 2.962,-0.168c1.16,-0.078 2.319,-0.168 3.477,-0.27c1.571,-0.137 3.14,-0.295 4.706,-0.474c1.491,-0.171 2.98,-0.362 4.465,-0.579c0.824,-0.12 1.646,-0.25 2.468,-0.385c1.021,-0.167 2.041,-0.344 3.06,-0.528c0,0 0,0 0,0c0.383,-0.07 0.72,-0.295 0.93,-0.623c0.21,-0.328 0.275,-0.728 0.178,-1.105c-0.734,-2.875 -1.407,-5.765 -2.022,-8.668c-0.312,-1.481 -1.738,-2.452 -3.231,-2.197c0,-0.001 0,0 0,0c-1.158,0.197 -2.317,0.384 -3.48,0.552c-1.285,0.185 -2.573,0.349 -3.863,0.497c-1.449,0.167 -2.901,0.312 -4.355,0.44c-1.491,0.13 -2.984,0.242 -4.479,0.328c-0.631,0.037 -1.263,0.069 -1.895,0.093c-0.476,0.018 -0.953,0.033 -1.43,0.036c-0.002,0 -0.003,0 -0.005,0c0,0 0,0 0,0c-0.002,0 -0.003,-0.001 -0.005,-0.001c-0.176,-0.036 -0.224,-0.047 -0.401,-0.075c-0.175,-0.028 -0.351,-0.048 -0.528,-0.063c-0.392,-0.033 -0.786,-0.033 -1.178,-0.004c0,0 0,0 0,0c-0.048,0.004 -0.092,0.028 -0.121,0.067c-0.029,0.039 -0.039,0.088 -0.029,0.135c0.882,3.934 1.879,7.843 2.996,11.716Z" style="fill:#faf3d2;stroke:#e9e9e9;stroke-width:1px;"/><path d="M86.252,173.416c-1.579,-0.355 -3.23,0.129 -4.368,1.28c-1.138,1.151 -1.603,2.807 -1.231,4.382c0.308,1.296 0.627,2.59 0.958,3.88c0.487,1.88 1.997,3.322 3.898,3.722c2.596,0.541 5.208,1.009 7.83,1.408c2.06,0.313 4.127,0.582 6.199,0.808c1.653,0.182 3.292,-0.453 4.392,-1.701c1.1,-1.248 1.524,-2.953 1.137,-4.571c-0.232,-0.972 -0.458,-1.944 -0.677,-2.919c-0.476,-2.127 -2.248,-3.719 -4.414,-3.965c-4.611,-0.535 -9.194,-1.307 -13.723,-2.324c0,0 -0.001,0 -0.001,0Z" style="fill:#faf3d2;stroke:#e9e9e9;stroke-width:1px;"/><path d="M301.859,182.939c-0.117,0.482 0.003,0.991 0.323,1.369c0.32,0.379 0.801,0.583 1.296,0.548c0,0 0.001,0 0.001,0c6.347,-0.447 12.678,-1.119 18.975,-2.03c1.14,-0.165 2.278,-0.338 3.415,-0.519c2.051,-0.326 3.701,-1.86 4.175,-3.882c0.446,-1.921 0.865,-3.849 1.256,-5.783c0.334,-1.652 -0.168,-3.363 -1.343,-4.573c-1.174,-1.21 -2.869,-1.763 -4.531,-1.478c-6.097,1.027 -12.236,1.803 -18.394,2.352c-0.001,0 -0.001,0 -0.001,0c-1.362,0.121 -2.475,1.136 -2.722,2.481c-0.714,3.859 -1.53,7.699 -2.45,11.515Z" style="fill:#faf3d2;stroke:#e9e9e9;stroke-width:1px;"/><path d="M155.068,181.759c0.183,0.727 0.651,1.35 1.299,1.728c0.647,0.378 1.419,0.48 2.142,0.283c0,0 0,0 0,0c0.938,-0.256 1.873,-0.522 2.801,-0.812c0.331,-0.104 0.661,-0.212 0.988,-0.327c0.287,-0.101 0.571,-0.207 0.851,-0.326c0.135,-0.057 0.268,-0.116 0.399,-0.179c0.036,-0.018 0.072,-0.035 0.108,-0.053c0.04,-0.02 0.079,-0.04 0.118,-0.06c0.149,-0.079 0.297,-0.159 0.447,-0.237c0.004,-0.002 0.008,-0.004 0.013,-0.007c1.625,-0.838 3.336,-1.493 5.05,-2.124l0.004,-0.002c0.624,-0.228 1.045,-0.814 1.063,-1.478c0.002,-0.108 0.005,-0.215 0.008,-0.323c0.093,-3.495 0.168,-6.991 0.23,-10.487c0,0 0,0 0,0c0.009,-0.493 -0.227,-0.959 -0.63,-1.243c-0.403,-0.285 -0.921,-0.351 -1.382,-0.177c-0.13,0.049 -0.26,0.097 -0.39,0.145c-1.058,0.394 -2.122,0.772 -3.182,1.159c-0.002,0 -0.004,0.001 -0.006,0.002c-0.238,0.087 -0.477,0.175 -0.715,0.263c-0.003,0.001 -0.006,0.002 -0.009,0.004c-1.134,0.422 -2.261,0.859 -3.372,1.337c-0.915,0.394 -1.817,0.815 -2.701,1.272c-0.19,0.099 -0.388,0.182 -0.592,0.249c0,0 0,0 0,0c-0.002,0 -0.004,0.001 -0.006,0.002c-0.841,0.271 -1.694,0.511 -2.547,0.743c0,0 0,0 0,0.001c-1.262,0.343 -2.037,1.609 -1.771,2.889c0.544,2.598 1.137,5.185 1.782,7.758Z" style="fill:#faf3d2;stroke:#e9e9e9;stroke-width:1px;"/><path d="M250.85,183.521c5.854,0.724 12.468,1.238 12.468,1.238c6.745,0.509 13.51,0.763 20.274,0.774c0.321,0.001 0.641,0.001 0.961,0c2.341,-0.003 4.38,-1.594 4.952,-3.864c0.457,-1.831 0.889,-3.668 1.295,-5.511c0.334,-1.518 -0.041,-3.105 -1.019,-4.313c-0.978,-1.208 -2.452,-1.906 -4.007,-1.896c-2.044,0.012 -4.089,0.001 -6.134,-0.033c-4.363,-0.073 -8.725,-0.253 -13.079,-0.546c-0.042,-0.003 -0.084,-0.006 -0.126,-0.01l-12.165,-1.123c-0.042,-0.005 -0.085,-0.009 -0.128,-0.013c-1.13,-0.133 -2.26,-0.275 -3.389,-0.424c-4.906,-0.649 -9.792,-1.451 -14.645,-2.42c-2.374,-0.474 -4.74,-0.988 -7.096,-1.544c-0.924,-0.219 -1.898,-0.045 -2.688,0.482c-0.79,0.527 -1.326,1.359 -1.478,2.297c-0.001,0 -0.001,0 -0.001,0c-0.382,2.35 -0.802,4.695 -1.259,7.032c-0.518,2.636 1.155,5.205 3.774,5.798c0,0.001 0,0.001 0.001,0.001c5.918,1.341 11.89,2.439 17.894,3.319c1.862,0.273 3.727,0.525 5.595,0.756Z" style="fill:#faf3d2;stroke:#e9e9e9;stroke-width:1px;"/><path d="M120.853,177.668c0.031,0.018 0.061,0.038 0.091,0.058c0.038,0.027 0.086,0.06 0.086,0.06c0,0 -0.001,-0.001 -0.004,-0.002c-0.044,-0.031 -0.09,-0.061 -0.136,-0.09c-0.016,-0.01 -0.033,-0.021 -0.047,-0.029c0,-0.001 0,-0.001 0,-0.001c0,-0.001 0.001,-0.001 0.001,-0.001c0.003,0.002 0.006,0.004 0.009,0.005Z" style="fill:#faf3d2;stroke:#e9e9e9;stroke-width:1px;"/><path d="M115.478,172.738c0.013,0.065 0.071,0.113 0.138,0.113c0,0 0,0 0,0c0.112,0 0.224,0 0.335,0.001c0.123,0 0.401,0.002 0.558,-0.002c0.06,-0.002 0.119,-0.004 0.179,-0.007c0.011,0 0.022,-0.001 0.033,-0.001c0,0 0,0 0,0c0.025,-0.001 0.05,-0.001 0.074,0.001l0.1,0.009c0.121,0.01 0.125,0.01 0.237,0.018c0.02,0.001 0.039,0.003 0.059,0.004c0.606,0.033 1.214,0.034 1.821,0.027c0.691,-0.007 1.382,-0.025 2.073,-0.048c2,-0.065 4,-0.168 5.998,-0.292c1.697,-0.106 3.394,-0.229 5.089,-0.371c1.481,-0.125 2.962,-0.264 4.44,-0.421c0.001,0 0.001,0 0.001,0c0.933,-0.1 1.783,-0.581 2.35,-1.329c0.566,-0.748 0.798,-1.697 0.64,-2.622c-0.499,-2.962 -0.939,-5.935 -1.322,-8.914c-0.207,-1.635 -1.684,-2.803 -3.323,-2.628c0,-0.001 0,-0.001 0,-0.001c-2.688,0.288 -5.384,0.508 -8.082,0.686c-1.628,0.107 -3.257,0.197 -4.887,0.266c-0.637,0.027 -1.274,0.051 -1.912,0.069c-0.511,0.014 -1.022,0.025 -1.533,0.027c-0.002,0 -0.005,0 -0.008,0c0,0 0,0 0,0c-0.012,0 -0.025,-0.001 -0.037,-0.003c-0.002,0 -0.003,0 -0.004,-0.001c-0.039,-0.006 -0.077,-0.012 -0.115,-0.018c-0.025,-0.004 -0.055,-0.008 -0.079,-0.012c-0.042,-0.006 -0.084,-0.012 -0.127,-0.017c-0.236,-0.028 -0.471,-0.051 -0.709,-0.061c-0.302,-0.014 -0.604,-0.011 -0.906,0.006c-0.186,0.009 -0.371,0.026 -0.556,0.045c-0.003,0.001 -0.006,0.001 -0.009,0.001c-0.006,0.001 -0.018,0.002 -0.029,0.004c-0.023,0.002 -0.046,0.003 -0.069,0.003c-0.001,0 -0.001,0 -0.001,0c-0.751,-0.002 -1.465,0.322 -1.958,0.888c-0.493,0.566 -0.717,1.318 -0.613,2.061c0.596,4.193 1.312,8.369 2.154,12.519Z" style="fill:#faf3d2;stroke:#e9e9e9;stroke-width:1px;"/><path d="M77.634,129.997c-0.703,-0.087 -1.41,0.136 -1.935,0.611c-0.526,0.475 -0.82,1.154 -0.806,1.863c0,0 0,0 0,0.001c0.06,2.925 0.173,5.849 0.341,8.769c0.143,2.502 0.326,5.002 0.55,7.498c0.607,6.766 1.515,13.509 2.744,20.193c0.048,0.26 0.251,0.465 0.512,0.514c0,0 0,0 0,0c4.052,0.77 8.131,1.401 12.225,1.902c1.646,0.202 3.295,0.383 4.946,0.543c1.577,0.154 3.137,-0.432 4.223,-1.588c1.085,-1.155 1.574,-2.748 1.322,-4.314c-0.285,-1.774 -0.548,-3.552 -0.79,-5.332c-0.315,-2.339 -2.19,-4.159 -4.537,-4.404c-1.283,-0.134 -2.565,-0.281 -3.845,-0.442c-5.28,-0.664 -10.532,-1.561 -15.725,-2.724c-0.001,0 -0.001,0 -0.002,0c-0.014,-0.004 -0.023,-0.018 -0.02,-0.033c0.002,-0.015 0.016,-0.025 0.031,-0.023c4.322,0.503 8.656,0.91 12.995,1.232c1.467,0.109 2.934,0.209 4.402,0.299c1.485,0.091 2.937,-0.469 3.976,-1.534c1.039,-1.065 1.562,-2.53 1.433,-4.012c-0.211,-2.448 -0.386,-4.899 -0.523,-7.352c-0.167,-2.977 -0.281,-5.958 -0.342,-8.94c0,0 0,0 0,0c-0.011,-0.51 -0.413,-0.925 -0.922,-0.953c-0.163,-0.009 -0.326,-0.018 -0.488,-0.027c-5.508,-0.307 -11.008,-0.754 -16.49,-1.363c-1.092,-0.122 -2.184,-0.249 -3.275,-0.384Z" style="fill:#faf3d2;stroke:#e9e9e9;stroke-width:1px;"/><path d="M166.515,102.918c1.056,0.12 2.113,-0.22 2.901,-0.933c0.788,-0.713 1.231,-1.73 1.217,-2.793c-0.052,-3.832 -0.113,-7.664 -0.183,-11.496c-0.095,-5.12 -0.206,-10.241 -0.341,-15.36c-0.113,-4.312 -0.242,-8.623 -0.396,-12.934c-0.087,-2.435 -0.182,-4.871 -0.289,-7.305c-0.024,-0.537 -0.361,-1.009 -0.861,-1.205c0,0 0,0 0,0c-0.746,-0.292 -1.494,-0.577 -2.245,-0.855c-1.255,-0.466 -2.645,-0.4 -3.849,0.184c-1.204,0.584 -2.117,1.634 -2.528,2.907c-0.001,0 -0.001,0 -0.001,0c-0.59,1.825 -1.153,3.659 -1.692,5.5c-0.365,1.255 0.315,2.575 1.548,3.006c0,0 0,0 0,0c2.274,0.795 4.524,1.661 6.742,2.601c0.725,0.307 1.446,0.622 2.163,0.945c0.001,0 0.002,0 0.002,0c0.044,0.021 0.065,0.072 0.048,0.118c-0.017,0.046 -0.067,0.071 -0.114,0.057c-0.177,-0.051 -0.353,-0.102 -0.53,-0.152c-2.841,-0.81 -5.704,-1.539 -8.584,-2.192c-1.324,-0.298 -2.646,0.507 -2.988,1.819c0,0.001 0,0.001 0,0.001c-0.993,3.809 -1.887,7.644 -2.687,11.498c-0.152,0.734 0.316,1.454 1.048,1.614c0.001,0 0.002,0 0.002,0.001c0.036,0.009 0.058,0.044 0.052,0.08c-0.007,0.036 -0.041,0.061 -0.077,0.057c0,0 -0.001,0 -0.001,0c-0.764,-0.087 -1.467,0.428 -1.614,1.183c-0.245,1.259 -0.481,2.519 -0.706,3.782c-0.74,4.139 -1.376,8.298 -1.908,12.469c-0.169,1.347 0.203,2.706 1.036,3.777c0.833,1.072 2.058,1.768 3.405,1.936c1.352,0.169 2.704,0.348 4.054,0.538c2.436,0.342 4.867,0.72 7.291,1.14c0.028,0.005 0.056,0.009 0.084,0.012c0.001,0 0.001,0 0.001,0Z" style="fill:#faf3d2;stroke:#e9e9e9;stroke-width:1px;"/><path d="M274.723,139.387c-2.737,-0.056 -5.033,2.053 -5.208,4.785c-0.275,4.151 -0.655,8.295 -1.145,12.426c-0.173,1.432 0.267,2.871 1.212,3.961c0.944,1.091 2.306,1.731 3.748,1.764c3.719,0.083 7.44,0.122 11.16,0.118c1.492,-0.001 2.984,-0.009 4.476,-0.024c2.545,-0.025 4.684,-1.918 5.019,-4.441c0.402,-3.07 0.742,-6.149 1.018,-9.232c0.224,-2.496 0.408,-4.996 0.551,-7.498c0,0 0,0 0,0c0.028,-0.492 -0.15,-0.973 -0.492,-1.327c-0.342,-0.355 -0.817,-0.55 -1.309,-0.539c-3.675,0.076 -7.352,0.108 -11.028,0.098c-2.667,-0.008 -5.335,-0.038 -8.002,-0.091Z" style="fill:#faf3d2;stroke:#e9e9e9;stroke-width:1px;"/><path d="M306.389,157.945c-0.126,0.996 0.196,1.996 0.879,2.73c0.684,0.735 1.658,1.128 2.66,1.074c0,0 0,0 0,0c6.52,-0.353 13.032,-0.845 19.529,-1.495c2.377,-0.24 4.27,-2.095 4.56,-4.467c0.284,-2.344 0.532,-4.692 0.743,-7.043c0.224,-2.496 0.407,-4.996 0.55,-7.498c0,0 0,0 0,0c0.068,-1.18 -0.388,-2.331 -1.245,-3.145c-0.857,-0.814 -2.03,-1.209 -3.205,-1.081c-0.815,0.09 -1.63,0.176 -2.445,0.26c-5.284,0.545 -10.579,0.98 -15.88,1.315c-2.577,0.161 -4.631,2.216 -4.788,4.793c-0.306,4.865 -0.757,9.72 -1.358,14.557Z" style="fill:#faf3d2;stroke:#e9e9e9;stroke-width:1px;"/><path d="M233.29,136.562c-1.406,-0.171 -2.821,0.249 -3.906,1.16c-1.085,0.912 -1.743,2.232 -1.818,3.647c-0.226,4.147 -0.558,8.289 -0.998,12.419c-0.303,2.786 1.692,5.296 4.474,5.63c2.123,0.255 4.248,0.49 6.374,0.709c4.361,0.45 8.73,0.828 13.103,1.14c2.707,0.191 5.092,-1.765 5.433,-4.456c0.338,-2.684 0.628,-5.374 0.869,-8.067c0.224,-2.496 0.408,-4.996 0.551,-7.498c0,0 0,0 0,0c0.08,-1.399 -0.984,-2.6 -2.383,-2.689c-4.422,-0.286 -8.84,-0.642 -13.251,-1.073c-2.819,-0.275 -5.636,-0.582 -8.448,-0.922Z" style="fill:#faf3d2;stroke:#e9e9e9;stroke-width:1px;"/><path d="M120.597,157.961c0.041,0.017 0.081,0.035 0.121,0.056c0.042,0.021 0.092,0.046 0.092,0.046c0,0 0,0 0,0c-0.053,-0.026 -0.106,-0.052 -0.159,-0.076c-0.019,-0.009 -0.038,-0.018 -0.054,-0.025c-0.001,0 -0.001,-0.001 -0.001,-0.001c0,0 0.001,-0.001 0.001,0c0,0 0,0 0,0Z" style="fill:#faf3d2;stroke:#e9e9e9;stroke-width:1px;"/><path d="M120.499,132.692c0.04,0.01 0.079,0.022 0.119,0.034c0.008,0.003 0.017,0.006 0.025,0.008c0,0 0,0 0,0.001c0,0 0,0 -0.001,0c-0.037,-0.011 -0.108,-0.031 -0.16,-0.046c-0.001,0 -0.001,0 -0.001,-0.001c0,0 0.001,0 0.001,0c0.006,0.001 0.011,0.003 0.017,0.004Z" style="fill:#faf3d2;stroke:#e9e9e9;stroke-width:1px;"/><path d="M119.839,132.524c0.031,0.005 0.061,0.012 0.092,0.02c0.011,0.003 0.023,0.006 0.036,0.009c0.001,0.001 0.001,0.001 0.001,0.002c0,0 -0.001,0.001 -0.002,0.001c-0.045,-0.011 -0.092,-0.022 -0.12,-0.029c-0.015,-0.004 -0.031,-0.007 -0.047,-0.011c-0.009,-0.001 -0.016,-0.003 -0.016,-0.003c0.019,0.004 0.037,0.007 0.056,0.011Z" style="fill:#faf3d2;stroke:#e9e9e9;stroke-width:1px;"/><path d="M294.78,103.342c-0.126,-1.299 -1.214,-2.291 -2.519,-2.296c-2.174,-0.007 -4.348,-0.011 -6.522,-0.014c-0.002,0 -0.003,0 -0.004,0c-0.853,0 -1.707,0 -2.561,0c0,0 -0.001,0 -0.002,0c-2.955,0.002 -5.911,0.009 -8.866,0.021c-1.423,0.006 -2.779,0.604 -3.742,1.651c-0.963,1.047 -1.447,2.448 -1.335,3.866c0.08,0.996 0.154,1.993 0.222,2.99c0.432,6.328 0.639,12.671 0.611,19.014c-0.001,0.375 -0.004,0.75 -0.007,1.125c-0.001,0.114 0.043,0.225 0.124,0.306c0.08,0.082 0.19,0.128 0.304,0.129c0,0 0,0 0,0c7.3,0.042 14.6,0.05 21.901,0.024c0,0 0,0 0,0c1.972,-0.007 3.566,-1.611 3.56,-3.583c-0.008,-2.139 -0.043,-4.277 -0.106,-6.415c-0.166,-5.615 -0.52,-11.225 -1.058,-16.817c0,-0.001 0,-0.001 0,-0.001Z" style="fill:#faf3d2;stroke:#e9e9e9;stroke-width:1px;"/><path d="M256.598,103.342c-0.117,-1.213 -1.144,-2.134 -2.363,-2.118c-5.759,0.075 -11.518,0.174 -17.276,0.299c-1.609,0.035 -3.219,0.072 -4.829,0.111c-1.402,0.035 -2.729,0.643 -3.669,1.684c-0.941,1.041 -1.413,2.422 -1.305,3.821c0.062,0.807 0.121,1.613 0.176,2.421c0.433,6.328 0.639,12.671 0.612,19.014c0,0 0,0 0,0.001c-0.002,0.494 0.391,0.899 0.884,0.912c5.81,0.152 11.621,0.276 17.432,0.374c2.102,0.036 4.203,0.068 6.305,0.097c1.378,0.019 2.706,-0.519 3.682,-1.492c0.976,-0.973 1.518,-2.299 1.503,-3.677c-0.017,-1.543 -0.049,-3.086 -0.094,-4.629c-0.166,-5.615 -0.52,-11.225 -1.058,-16.817c0,-0.001 0,-0.001 0,-0.001Z" style="fill:#faf3d2;stroke:#e9e9e9;stroke-width:1px;"/><path d="M352.524,102.119c-1.452,-0.05 -2.858,0.52 -3.864,1.569c-1.007,1.048 -1.52,2.475 -1.411,3.924c0.049,0.649 0.096,1.298 0.14,1.948c0.433,6.328 0.639,12.671 0.612,19.014c0,0 0,0 0,0c-0.001,0.173 0.069,0.339 0.193,0.46c0.124,0.121 0.292,0.186 0.465,0.18c4.34,-0.138 8.68,-0.296 13.019,-0.477c2.929,-0.122 5.857,-0.254 8.785,-0.399c1.934,-0.097 3.445,-1.706 3.42,-3.642c0,0 0,0 0,0c-0.062,-4.858 -0.285,-9.714 -0.665,-14.558c-0.078,-0.997 -0.163,-1.994 -0.254,-2.99c-0.219,-2.398 -2.172,-4.267 -4.577,-4.382c0,0 0,0 0,0c-5.286,-0.251 -10.574,-0.464 -15.863,-0.647Z" style="fill:#faf3d2;stroke:#e9e9e9;stroke-width:1px;"/><path d="M195.447,123.377c0.01,2.723 2.152,4.96 4.872,5.089c2.292,0.108 4.585,0.208 6.877,0.302c1.037,0.043 2.073,0.084 3.11,0.124c1.404,0.054 2.768,-0.471 3.772,-1.453c1.005,-0.981 1.561,-2.333 1.539,-3.737c-0.018,-1.181 -0.045,-2.361 -0.079,-3.542c-0.166,-5.615 -0.52,-11.225 -1.059,-16.817c0,-0.001 0,-0.001 0,-0.001c-0.063,-0.662 -0.633,-1.161 -1.298,-1.137c-4.19,0.152 -8.379,0.324 -12.567,0.52c-0.459,0.021 -0.919,0.043 -1.379,0.065c-2.204,0.106 -3.929,1.935 -3.907,4.141c0,0 0,0.001 0,0.001c0.057,5.481 0.097,10.963 0.119,16.445Z" style="fill:#faf3d2;stroke:#e9e9e9;stroke-width:1px;"/><path d="M111.058,128.633c0.001,0.036 0.029,0.065 0.065,0.065c0,0 0,0 0,0c1.289,0.004 2.578,0.006 3.867,0.007c0.464,0 0.927,0.002 1.391,0c0.008,0 0.017,0 0.025,0c0.182,-0.001 0.364,-0.004 0.545,-0.006c0.098,-0.001 0.098,-0.001 0.195,0.003l0.12,0.003c0.02,0.001 0.04,0.001 0.06,0.001c0.119,0.002 0.237,0.003 0.356,0.004c0.006,0 0.012,0 0.018,0c0.412,0.002 0.824,0.002 1.236,0.001c0.001,0 0.003,0 0.004,0c2.702,-0.004 5.403,-0.02 8.105,-0.04c2.802,-0.021 5.603,-0.047 8.405,-0.081c0,0 0.132,-0.002 0.292,-0.004c0.312,-0.004 0.562,-0.257 0.561,-0.569c0,0 0,0 0,0c-0.006,-2.742 0.032,-5.483 0.112,-8.224c0.116,-3.913 0.318,-7.823 0.607,-11.727c0.106,-1.41 -0.377,-2.801 -1.334,-3.843c-0.957,-1.041 -2.302,-1.64 -3.717,-1.653c-6.091,-0.056 -12.182,-0.078 -18.274,-0.069c0,0 -0.261,0.001 -0.558,0.001c-0.475,0.001 -0.872,0.362 -0.917,0.835c0,0 0,0 0,0.001c-0.539,5.592 -0.893,11.202 -1.059,16.817c-0.083,2.826 -0.118,5.652 -0.105,8.478Z" style="fill:#faf3d2;stroke:#e9e9e9;stroke-width:1px;"/><path d="M74.88,123.111c-0.051,2.814 2.182,5.14 4.996,5.205c4.576,0.102 9.153,0.182 13.73,0.242c2.818,0.036 5.135,-2.215 5.179,-5.034c0.016,-1.062 0.038,-2.124 0.067,-3.186c0.112,-4.072 0.318,-8.142 0.618,-12.204c0.107,-1.43 -0.391,-2.839 -1.373,-3.884c-0.982,-1.045 -2.358,-1.63 -3.791,-1.612c-2.623,0.033 -5.246,0.073 -7.868,0.12c-3.346,0.059 -6.691,0.13 -10.036,0.213c-0.205,0.005 -0.374,0.162 -0.394,0.366c0,0 0,0.001 0,0.001c-0.539,5.592 -0.893,11.202 -1.058,16.817c-0.03,0.985 -0.053,1.97 -0.07,2.956Z" style="fill:#faf3d2;stroke:#e9e9e9;stroke-width:1px;"/><path d="M76.677,97.174c-0.121,1.013 0.228,2.024 0.947,2.747c0.718,0.723 1.728,1.078 2.741,0.964c0,0 0,0 0,0c3.535,-0.4 7.078,-0.731 10.626,-1.002c1.665,-0.127 3.331,-0.24 4.998,-0.341c2.464,-0.148 4.471,-2.036 4.769,-4.487c0.604,-4.907 1.346,-9.796 2.225,-14.661c0,0 0,-0.001 0,-0.001c0.185,-1.026 -0.107,-2.08 -0.794,-2.864c-0.686,-0.784 -1.693,-1.213 -2.734,-1.165c-1.323,0.062 -2.646,0.13 -3.968,0.207c-3.97,0.228 -7.936,0.526 -11.895,0.897c-2.276,0.217 -4.131,1.917 -4.545,4.165c-0.087,0.47 -0.173,0.941 -0.257,1.413c-0.838,4.688 -1.542,9.4 -2.113,14.128Z" style="fill:#faf3d2;stroke:#e9e9e9;stroke-width:1px;"/><path d="M120.619,76.004c-2.477,-0.028 -4.618,1.723 -5.082,4.156c-0.183,0.961 -0.361,1.923 -0.533,2.886c-0.804,4.5 -1.485,9.023 -2.044,13.562c-0.072,0.593 0.114,1.189 0.511,1.636c0.397,0.446 0.967,0.701 1.565,0.699c0,0 0,0 0,0c5.988,-0.021 11.977,0.109 17.957,0.403c2.68,0.137 5.01,-1.822 5.336,-4.485c0.601,-4.842 1.334,-9.666 2.201,-14.467c0,0 0,0 0,-0.001c0.164,-0.908 -0.068,-1.842 -0.638,-2.568c-0.57,-0.725 -1.423,-1.172 -2.344,-1.227c-3.761,-0.222 -7.526,-0.383 -11.292,-0.485c-1.878,-0.05 -3.757,-0.087 -5.637,-0.109Z" style="fill:#faf3d2;stroke:#e9e9e9;stroke-width:1px;"/><path d="M252.074,74.238c-0.545,-2.499 -2.853,-4.211 -5.402,-4.008c-3.595,0.289 -7.186,0.623 -10.772,1.006c-2.742,0.293 -5.48,0.614 -8.215,0.966c-1.397,0.181 -2.657,0.93 -3.483,2.069c-0.827,1.14 -1.147,2.57 -0.886,3.954c0.015,0.077 0.029,0.155 0.044,0.232c0.933,4.949 1.722,9.924 2.37,14.917c0,0.001 0,0.001 0,0.001c0.077,0.587 0.384,1.12 0.855,1.48c0.47,0.36 1.065,0.517 1.652,0.436c4.627,-0.629 9.268,-1.161 13.916,-1.611c2.563,-0.247 5.128,-0.47 7.695,-0.668c1.427,-0.109 2.743,-0.812 3.627,-1.937c0.885,-1.125 1.258,-2.569 1.029,-3.981c-0.194,-1.194 -0.396,-2.387 -0.606,-3.578c-0.549,-3.104 -1.156,-6.198 -1.824,-9.278Z" style="fill:#faf3d2;stroke:#e9e9e9;stroke-width:1px;"/><path d="M308.35,69.372c-1.575,-0.079 -3.098,0.574 -4.127,1.768c-1.03,1.194 -1.451,2.796 -1.142,4.342c0.199,0.991 0.392,1.982 0.579,2.975c0.761,4.034 1.426,8.085 1.996,12.15c0.132,0.946 0.917,1.666 1.872,1.715c0,0 0,0 0,0c7.333,0.378 14.658,0.94 21.96,1.715c0,0 0.001,0 0.001,0c0.974,0.103 1.942,-0.25 2.62,-0.957c0.679,-0.707 0.993,-1.688 0.849,-2.658c-0.342,-2.307 -0.716,-4.609 -1.122,-6.906c-0.527,-2.985 -1.109,-5.962 -1.747,-8.926c-0.474,-2.185 -2.312,-3.81 -4.54,-4.01c-0.18,-0.017 -0.361,-0.033 -0.541,-0.049c-5.545,-0.493 -11.099,-0.877 -16.658,-1.159Z" style="fill:#faf3d2;stroke:#e9e9e9;stroke-width:1px;"/><path d="M289.747,71.946c-0.424,-1.854 -2.071,-3.172 -3.974,-3.179c0,-0.001 0,-0.001 0,-0.001c-0.001,0 -0.002,0 -0.002,0c-0.72,-0.002 -1.44,-0.003 -2.16,-0.003c-0.002,0 -0.003,0 -0.005,0c-2.553,0.004 -5.105,0.025 -7.658,0.067c-2.089,0.035 -4.177,0.083 -6.265,0.145c-1.506,0.044 -2.916,0.751 -3.854,1.932c-0.937,1.18 -1.305,2.713 -1.007,4.191c0.226,1.118 0.445,2.238 0.656,3.359c0.569,3.015 1.084,6.039 1.546,9.072c0.386,2.551 2.612,4.414 5.191,4.346c4.084,-0.104 8.17,-0.153 12.255,-0.15c0.974,0.001 1.947,0.005 2.921,0.012c1.511,0.01 2.948,-0.648 3.928,-1.798c0.979,-1.15 1.4,-2.674 1.15,-4.164c-0.127,-0.754 -0.256,-1.507 -0.389,-2.259c-0.685,-3.874 -1.461,-7.733 -2.333,-11.57Z" style="fill:#faf3d2;stroke:#e9e9e9;stroke-width:1px;"/><path d="M339.284,51.428c-0.567,-0.124 -1.158,0.062 -1.552,0.488c-0.395,0.426 -0.534,1.029 -0.367,1.585c0,0 0,0 0,0.001c1.223,4.061 2.328,8.158 3.327,12.28c0,0 0,0 0,0c0.31,1.282 1.302,2.288 2.579,2.616c3.571,0.925 7.116,1.951 10.624,3.091c4.251,1.382 8.448,2.929 12.563,4.674c0,0 0,0 0,0c0.307,0.13 0.661,0.076 0.915,-0.14c0.254,-0.216 0.365,-0.556 0.286,-0.88c-0.596,-2.438 -1.237,-4.865 -1.927,-7.278c-0.679,-2.376 -1.405,-4.738 -2.184,-7.082c-0.044,-0.133 -0.088,-0.266 -0.133,-0.398c-0.509,-1.522 -1.703,-2.717 -3.224,-3.227c-1.506,-0.503 -3.017,-0.986 -4.535,-1.451c-3.727,-1.141 -7.488,-2.17 -11.274,-3.096c-1.694,-0.415 -3.394,-0.809 -5.098,-1.183Z" style="fill:#faf3d2;stroke:#e9e9e9;stroke-width:1px;"/><path d="M124.793,58.523c-2.375,-0.09 -4.499,1.469 -5.125,3.762c-0.233,0.847 -0.459,1.696 -0.681,2.546c-0.673,2.581 -1.3,5.174 -1.884,7.777c-0.072,0.323 0.006,0.661 0.211,0.92c0.206,0.259 0.518,0.412 0.848,0.415c0.001,0 0.001,0 0.001,0c5.191,0.049 10.38,0.303 15.55,0.772c1.049,0.096 2.097,0.2 3.144,0.313c2.597,0.28 4.987,-1.443 5.544,-3.995c0.591,-2.698 1.228,-5.386 1.91,-8.063c0.172,-0.67 0.048,-1.381 -0.34,-1.953c-0.388,-0.572 -1.003,-0.95 -1.689,-1.037c0,0 0,0 0,-0.001c-5.805,-0.741 -11.642,-1.222 -17.489,-1.456Z" style="fill:#faf3d2;stroke:#e9e9e9;stroke-width:1px;"/><path d="M302.648,46.291c-1.674,-0.109 -3.296,0.61 -4.339,1.924c-1.043,1.314 -1.375,3.057 -0.887,4.663c0.061,0.208 0.124,0.416 0.187,0.624c0.474,1.574 0.93,3.154 1.369,4.738c0.577,2.082 2.399,3.577 4.554,3.735c4.337,0.325 8.666,0.763 12.98,1.317c1.171,0.151 2.342,0.31 3.511,0.479c1.728,0.247 3.463,-0.405 4.601,-1.729c1.138,-1.324 1.522,-3.137 1.018,-4.809c-0.294,-0.982 -0.596,-1.962 -0.905,-2.94c-0.348,-1.1 -0.706,-2.197 -1.073,-3.29c-0.533,-1.586 -1.92,-2.731 -3.577,-2.955c0,0 0,0 0,0c-5.791,-0.782 -11.609,-1.364 -17.439,-1.757Z" style="fill:#faf3d2;stroke:#e9e9e9;stroke-width:1px;"/><path d="M194.414,61.883c0.002,0.076 0.046,0.144 0.113,0.178c0.067,0.034 0.148,0.029 0.21,-0.014c0,0 0,0 0,0c1.088,-0.742 2.19,-1.464 3.303,-2.168c1.894,-1.197 3.823,-2.34 5.781,-3.429c0.763,-0.423 1.122,-1.325 0.859,-2.157c0,0 0,0 0,0c-1.175,-3.713 -2.457,-7.394 -3.866,-11.025c0,0 0,0 0,0c-0.008,-0.021 -0.025,-0.038 -0.047,-0.046c-0.021,-0.008 -0.045,-0.007 -0.065,0.004c-1.397,0.73 -2.782,1.483 -4.153,2.259c-1.672,0.949 -2.671,2.757 -2.584,4.678c0.046,1.052 0.091,2.105 0.134,3.157c0.118,2.854 0.221,5.709 0.315,8.563Z" style="fill:#faf3d2;stroke:#e9e9e9;stroke-width:1px;"/><path d="M282.425,46.758c-0.237,-0.648 -0.856,-1.077 -1.546,-1.069c0,0 0,0 0,0c-2.106,0.024 -4.21,0.071 -6.314,0.143c-3.596,0.122 -7.19,0.314 -10.779,0.579c-1.547,0.115 -2.959,0.928 -3.836,2.207c-0.877,1.28 -1.126,2.889 -0.676,4.374c0.05,0.17 0.102,0.34 0.153,0.51c0.463,1.54 0.91,3.085 1.34,4.635c0.651,2.342 2.86,3.903 5.285,3.733c2.73,-0.189 5.463,-0.334 8.197,-0.436c1.983,-0.074 3.966,-0.125 5.95,-0.154c0.999,-0.014 1.999,-0.023 2.998,-0.027c0.003,0 0.006,0 0.009,0c0.42,-0.001 0.84,-0.001 1.261,-0.001l0.004,0c0.611,0.002 1.188,-0.285 1.556,-0.774c0.368,-0.489 0.484,-1.123 0.313,-1.711c-0.437,-1.496 -0.89,-2.988 -1.36,-4.474c-0.8,-2.529 -1.65,-5.042 -2.555,-7.535Z" style="fill:#faf3d2;stroke:#e9e9e9;stroke-width:1px;"/><path d="M84.857,57.376c-0.048,0.163 -0.007,0.339 0.11,0.464c0.116,0.124 0.29,0.176 0.456,0.138c0,0 0.001,0 0.001,0c7.522,-1.741 15.199,-2.803 22.907,-3.233c0,0 0,0 0,0c0.42,-0.024 0.781,-0.308 0.901,-0.712c0.67,-2.249 1.377,-4.487 2.121,-6.713c0,0 0,0 0,0c0.453,-1.353 0.203,-2.841 -0.664,-3.973c-0.868,-1.131 -2.242,-1.757 -3.665,-1.67c-0.797,0.048 -1.594,0.102 -2.39,0.162c-4.085,0.307 -8.16,0.778 -12.207,1.419c-1.827,0.294 -3.352,1.552 -3.989,3.289c-0.795,2.179 -1.547,4.374 -2.26,6.581c-0.456,1.411 -0.896,2.827 -1.321,4.248Z" style="fill:#faf3d2;stroke:#e9e9e9;stroke-width:1px;"/><path d="M127.388,41.798c-0.537,-0.038 -1.036,0.277 -1.232,0.778c-0.001,0 -0.001,0 -0.001,0c-1.367,3.476 -2.615,6.998 -3.763,10.552c0,0 0,0 0,0c-0.115,0.358 -0.058,0.749 0.156,1.058c0.213,0.309 0.559,0.5 0.934,0.519c4.347,0.219 8.683,0.639 12.99,1.267c1.585,0.232 3.165,0.491 4.741,0.78c2.559,0.469 5.062,-1.06 5.815,-3.551c0.597,-1.969 1.22,-3.93 1.873,-5.881c0,0 0,0 0,0c0.191,-0.571 0.129,-1.196 -0.17,-1.718c-0.298,-0.522 -0.806,-0.892 -1.394,-1.017c-1.554,-0.327 -3.113,-0.628 -4.676,-0.904c-5.054,-0.892 -10.155,-1.516 -15.273,-1.883Z" style="fill:#faf3d2;stroke:#e9e9e9;stroke-width:1px;"/><path d="M333.708,30.331c-1.028,-0.268 -2.119,0.071 -2.814,0.875c-0.695,0.803 -0.873,1.932 -0.459,2.91c-0.001,0.001 -0.001,0.002 -0.001,0.002c1.237,2.923 2.387,5.883 3.464,8.869c0,0 0,0 0,0c0.254,0.703 0.826,1.244 1.542,1.456c1.566,0.467 3.125,0.958 4.675,1.472c5.013,1.664 9.944,3.582 14.75,5.774c1.776,0.81 3.536,1.657 5.276,2.543c0.21,0.108 0.466,0.074 0.641,-0.084c0.176,-0.159 0.235,-0.41 0.149,-0.63c0,-0.001 0,-0.001 0,-0.002c-0.662,-1.694 -1.359,-3.375 -2.096,-5.038c-0.707,-1.596 -1.452,-3.175 -2.248,-4.728c-0.619,-1.209 -1.268,-2.403 -1.96,-3.571c-0.602,-1.015 -1.236,-2.012 -1.931,-2.966c-0.001,-0.001 -0.002,-0.002 -0.003,-0.003c0,0 0,0 0,0c-0.113,-0.154 -0.249,-0.287 -0.405,-0.396c-0.327,-0.228 -0.657,-0.451 -0.986,-0.675c-0.343,-0.237 -0.713,-0.43 -1.103,-0.576c-1.254,-0.47 -2.514,-0.924 -3.779,-1.363c-4.186,-1.453 -8.428,-2.74 -12.712,-3.869Z" style="fill:#faf3d2;stroke:#e9e9e9;stroke-width:1px;"/><path d="M238.613,33.233c-0.991,-2.074 -3.323,-3.144 -5.541,-2.541c0,0 0,0 0,0c-5.632,1.53 -11.19,3.336 -16.635,5.437c0,0 0,0 0,0c-2.479,0.956 -3.736,3.721 -2.828,6.218c0.078,0.213 0.155,0.426 0.232,0.64c0.269,0.744 0.533,1.49 0.792,2.238c0.455,1.309 1.422,2.376 2.678,2.959c1.257,0.583 2.696,0.631 3.989,0.133c1.795,-0.691 3.603,-1.347 5.423,-1.968c3.286,-1.123 6.609,-2.136 9.961,-3.042c1.446,-0.39 2.649,-1.393 3.291,-2.746c0.642,-1.353 0.658,-2.92 0.044,-4.286c-0.305,-0.685 -0.617,-1.368 -0.935,-2.047c-0.156,-0.333 -0.313,-0.664 -0.471,-0.995Z" style="fill:#faf3d2;stroke:#e9e9e9;stroke-width:1px;"/><path d="M288.363,24.104c-0.504,-0.011 -0.977,0.243 -1.246,0.668c-0.27,0.426 -0.298,0.962 -0.074,1.413c0.041,0.083 0.083,0.167 0.124,0.251c1.248,2.524 2.413,5.089 3.511,7.682c0.236,0.558 0.468,1.117 0.698,1.677c0.386,0.941 1.28,1.574 2.296,1.625c0,0 0,0 0,0c8.61,0.431 17.192,1.446 25.656,3.085c0.001,0 0.001,0 0.001,0c0.095,0.018 0.192,-0.017 0.253,-0.092c0.062,-0.075 0.077,-0.177 0.04,-0.266c-0.822,-1.993 -1.686,-3.967 -2.6,-5.919c-1.221,-2.61 -2.529,-5.18 -3.958,-7.682c0,0 0,0 0,0c-0.16,-0.281 -0.441,-0.471 -0.761,-0.517c-5.681,-0.805 -11.398,-1.359 -17.128,-1.67c-2.269,-0.123 -4.54,-0.208 -6.812,-0.255c0,0 0,0 0,0Z" style="fill:#faf3d2;stroke:#e9e9e9;stroke-width:1px;"/><path d="M272.624,25.37c-0.35,-0.591 -1.002,-0.935 -1.688,-0.891c0,0 0,0 0,0c-6.728,0.432 -13.435,1.201 -20.083,2.321c-0.001,0 -0.001,0 -0.001,0c-0.368,0.062 -0.685,0.293 -0.857,0.623c-0.173,0.331 -0.18,0.724 -0.02,1.06c0.881,1.86 1.719,3.74 2.521,5.635c0.232,0.549 0.461,1.099 0.688,1.651c0.887,2.158 3.123,3.442 5.434,3.12c5.201,-0.71 10.433,-1.194 15.675,-1.461c0.356,-0.018 0.713,-0.036 1.07,-0.052c0.738,-0.034 1.41,-0.433 1.792,-1.066c0.382,-0.632 0.424,-1.413 0.111,-2.082c0,0 0,0 0,0c-1.221,-2.61 -2.53,-5.18 -3.958,-7.682c-0.225,-0.394 -0.453,-0.786 -0.684,-1.176Z" style="fill:#faf3d2;stroke:#e9e9e9;stroke-width:1px;"/><path d="M355.153,38.492c0.015,0.008 0.024,0.022 0.027,0.038c0.002,0.016 -0.003,0.032 -0.015,0.044c-0.348,-0.236 -0.709,-0.449 -1.064,-0.673c-0.002,-0.001 -0.004,-0.002 -0.005,-0.003c0,0 0,0 0,0c0.352,0.198 0.705,0.396 1.057,0.594Z" style="fill:#faf3d2;stroke:#e9e9e9;stroke-width:1px;"/></g></g><g><path d="M0.66,274.946l0,-20.729l49.938,0l1.649,14.84c3.769,-5.496 8.284,-9.736 13.545,-12.72c5.26,-2.984 11.385,-4.476 18.373,-4.476c15.783,0 28.032,6.164 36.747,18.492c8.716,12.327 13.074,28.542 13.074,48.643l0,2.473c0,18.845 -4.358,33.999 -13.074,45.463c-8.715,11.464 -20.886,17.196 -36.511,17.196c-6.674,0 -12.603,-1.237 -17.785,-3.71c-5.182,-2.474 -9.619,-6.105 -13.309,-10.895l0,36.865l16.607,3.533l0,20.73l-67.488,0l0,-20.73l16.607,-3.533l0,-127.908l-18.373,-3.534Zm98.934,44.05c0,-12.014 -2.002,-21.75 -6.006,-29.21c-4.005,-7.459 -10.129,-11.189 -18.374,-11.189c-5.182,0 -9.599,1.06 -13.25,3.18c-3.651,2.12 -6.537,5.143 -8.657,9.069l0,55.828c2.12,3.612 5.006,6.36 8.657,8.244c3.651,1.885 8.146,2.827 13.486,2.827c8.323,0 14.428,-3.258 18.314,-9.776c3.887,-6.517 5.83,-15.35 5.83,-26.5l0,-2.473Z" style="fill:#5b0098;fill-rule:nonzero;"/><path d="M169.122,361.043l16.489,-3.533l0,-79.03l-18.256,-3.534l0,-20.729l50.292,0l1.531,18.256c4.24,-6.517 9.462,-11.582 15.665,-15.194c6.203,-3.612 13.152,-5.418 20.847,-5.418c12.877,0 22.927,4.044 30.151,12.132c7.224,8.087 10.836,20.768 10.836,38.042l0,55.475l16.489,3.533l0,20.611l-65.721,0l0,-20.611l14.723,-3.533l0,-55.357c0,-8.558 -1.728,-14.624 -5.183,-18.197c-3.455,-3.572 -8.676,-5.359 -15.664,-5.359c-4.555,0 -8.638,0.923 -12.249,2.768c-3.612,1.845 -6.635,4.456 -9.069,7.833l0,68.312l13.897,3.533l0,20.611l-64.778,0l0,-20.611Z" style="fill:#5b0098;fill-rule:nonzero;"/><path d="M396.394,365.519c-4.083,5.967 -9.128,10.56 -15.135,13.78c-6.007,3.219 -12.858,4.829 -20.553,4.829c-13.426,0 -23.948,-4.299 -31.564,-12.897c-7.617,-8.598 -11.425,-21.966 -11.425,-40.104l0,-52.647l-14.016,-3.534l0,-20.729l48.408,0l0,77.146c0,9.265 1.55,15.919 4.652,19.963c3.101,4.044 7.714,6.066 13.839,6.066c5.418,0 10.109,-0.884 14.075,-2.65c3.965,-1.767 7.204,-4.299 9.716,-7.597l0,-68.665l-15.075,-3.534l0,-20.729l49.467,0l0,103.293l15.429,3.533l0,20.611l-45.581,0l-2.237,-16.135Z" style="fill:#5b0098;fill-rule:nonzero;"/><path d="M491.635,223.006l0,31.211l22.378,0l0,24.145l-22.378,0l0,64.896c0,4.947 1.02,8.48 3.062,10.6c2.041,2.12 4.79,3.18 8.245,3.18c2.355,0 4.416,-0.098 6.183,-0.294c1.767,-0.196 3.749,-0.53 5.948,-1.001l2.944,24.851c-3.847,1.178 -7.655,2.061 -11.424,2.65c-3.769,0.589 -7.852,0.884 -12.249,0.884c-11.857,0 -20.985,-3.259 -27.384,-9.776c-6.399,-6.517 -9.599,-16.842 -9.599,-30.976l0,-65.014l-18.727,0l0,-24.145l18.727,0l0,-31.211l34.274,0Z" style="fill:#5b0098;fill-rule:nonzero;"/><rect x="528.98" y="351.503" width="34.274" height="30.152" style="fill:#5b0098;fill-rule:nonzero;"/><path d="M574.391,361.043l16.607,-3.533l0,-79.03l-18.373,-3.534l0,-20.729l52.765,0l0,103.293l16.489,3.533l0,20.611l-67.488,0l0,-20.611Zm50.999,-137.331l-34.392,0l0,-25.793l34.392,0l0,25.793Z" style="fill:#5b0098;fill-rule:nonzero;"/><path d="M636.301,316.758c0,-19.002 5.319,-34.568 15.959,-46.7c10.639,-12.131 25.342,-18.197 44.108,-18.197c18.845,0 33.587,6.046 44.226,18.138c10.64,12.092 15.959,27.679 15.959,46.759l0,2.473c0,19.159 -5.319,34.765 -15.959,46.818c-10.639,12.052 -25.303,18.079 -43.99,18.079c-18.923,0 -33.705,-6.027 -44.344,-18.079c-10.64,-12.053 -15.959,-27.659 -15.959,-46.818l0,-2.473Zm34.391,2.473c0,11.621 2.042,20.945 6.125,27.973c4.083,7.027 10.678,10.541 19.787,10.541c8.872,0 15.37,-3.533 19.492,-10.6c4.123,-7.067 6.184,-16.371 6.184,-27.914l0,-2.473c0,-11.307 -2.081,-20.533 -6.243,-27.678c-4.161,-7.146 -10.718,-10.718 -19.669,-10.718c-8.951,0 -15.468,3.572 -19.551,10.718c-4.083,7.145 -6.125,16.371 -6.125,27.678l0,2.473Z" style="fill:#5b0098;fill-rule:nonzero;"/></g></g></svg>