<?xml version="1.0" encoding="UTF-8" standalone="no"?><!DOCTYPE svg PUBLIC "-//W3C//DTD SVG 1.1//EN" "http://www.w3.org/Graphics/SVG/1.1/DTD/svg11.dtd"><svg width="100%" height="100%" viewBox="0 0 617 617" version="1.1" xmlns="http://www.w3.org/2000/svg" xmlns:xlink="http://www.w3.org/1999/xlink" xml:space="preserve" style="fill-rule:evenodd;clip-rule:evenodd;stroke-linejoin:round;stroke-miterlimit:1.41421;"><g><path d="M616.423,93.504c0,-51.099 -41.487,-92.585 -92.586,-92.585l-430.829,0c-51.099,0 -92.585,41.486 -92.585,92.585l0,430.829c0,51.099 41.486,92.586 92.585,92.586l430.829,0c51.099,0 92.586,-41.487 92.586,-92.586l0,-430.829Z" style="fill:#008c99;"/><g><path d="M256.072,381.648c4.699,-3.001 10.848,-2.356 14.823,1.554c31.268,30.226 77.426,49.359 128.877,49.359c94.087,0 170.474,-63.981 170.474,-142.787c0,-78.806 -76.387,-142.787 -170.474,-142.787c-49.914,0 -94.847,18.007 -126.036,46.682c-5.778,5.291 -14.336,6.185 -21.083,2.202c-21.123,-12.47 -46.674,-19.743 -74.179,-19.743c-72.784,0 -131.875,50.923 -131.875,113.646c0,62.723 59.091,113.646 131.875,113.646c0.48,0 0.96,-0.002 1.439,-0.006c1.4,-0.013 2.728,0.624 3.594,1.724c5.97,7.575 20.191,37.485 28.328,47.811c0.477,0.606 1.27,0.869 2.014,0.669c0.745,-0.199 1.3,-0.823 1.41,-1.586c1.685,-11.635 15.56,-42.879 17.233,-54.437c0.39,-2.69 2.157,-4.981 4.659,-6.041c6.646,-2.845 12.972,-6.167 18.921,-9.906Z" style="fill:#fffefb;"/><g><path d="M374.988,391.995c-3.187,-0.326 -6.163,1.635 -7.121,4.692c-0.913,2.899 -1.874,5.782 -2.884,8.647c-0.243,0.684 -0.162,1.441 0.219,2.058c0.381,0.617 1.022,1.028 1.742,1.117c0,0 0,0 0,0c9.278,1.152 18.617,1.801 27.964,1.969c0.685,0.011 1.306,-0.402 1.56,-1.038c0.001,0 0.001,0 0.001,0c1.515,-3.785 2.934,-7.609 4.258,-11.466c0,0 0,0 0.001,-0.001c0.375,-1.094 0.202,-2.302 -0.465,-3.247c-0.668,-0.945 -1.749,-1.512 -2.905,-1.523c-0.359,-0.004 -0.718,-0.008 -1.077,-0.013c-7.11,-0.097 -14.217,-0.492 -21.293,-1.195Z" style="fill:#faf3d2;stroke:#e9e9e9;stroke-width:1px;"/><path d="M416.966,400.597c-0.716,2.159 -0.294,4.533 1.12,6.314c1.414,1.781 3.63,2.73 5.895,2.523c2.324,-0.211 4.645,-0.452 6.962,-0.724c5.242,-0.617 10.466,-1.393 15.66,-2.333c2.357,-0.431 4.307,-2.08 5.125,-4.332c0.492,-1.352 0.971,-2.71 1.438,-4.071c0.104,-0.301 0.207,-0.603 0.309,-0.905c0.725,-2.133 0.26,-4.491 -1.221,-6.189c-1.481,-1.698 -3.754,-2.479 -5.966,-2.051c0,0 0,0 0,0c-8.271,1.601 -16.63,2.75 -25.024,3.471c0,0 0,0 0,0c-1.048,0.09 -1.936,0.81 -2.241,1.817c-0.658,2.169 -1.344,4.329 -2.057,6.48Z" style="fill:#faf3d2;stroke:#e9e9e9;stroke-width:1px;"/><path d="M320.172,379.719c-0.728,-0.266 -1.534,-0.211 -2.218,0.152c-0.685,0.362 -1.184,0.997 -1.373,1.748c-0.469,1.853 -0.957,3.701 -1.463,5.544c-0.203,0.736 -0.408,1.471 -0.616,2.205c-0.979,3.455 0.921,7.071 4.322,8.225c0.372,0.127 0.744,0.252 1.116,0.376c6.395,2.138 12.885,3.987 19.441,5.559c0.828,0.199 1.656,0.393 2.486,0.583c3.346,0.768 6.736,-1.1 7.873,-4.34c0.211,-0.598 0.419,-1.197 0.625,-1.797c0.22,-0.64 0.437,-1.282 0.652,-1.924c0.605,-1.807 0.419,-3.785 -0.514,-5.446c-0.933,-1.662 -2.525,-2.851 -4.383,-3.275c-0.902,-0.204 -1.802,-0.414 -2.702,-0.63c-7.871,-1.888 -15.641,-4.204 -23.245,-6.98c-0.001,0 -0.001,0 -0.001,0Z" style="fill:#faf3d2;stroke:#e9e9e9;stroke-width:1px;"/><path d="M472.939,389.083c-0.681,2.416 0.037,5.011 1.863,6.734c1.826,1.723 4.458,2.289 6.831,1.469c4.352,-1.507 8.658,-3.145 12.906,-4.925c2.608,-1.092 5.195,-2.239 7.756,-3.44c1.65,-0.776 2.915,-2.188 3.507,-3.913c1.683,-4.945 3.181,-9.95 4.504,-15.002c0.251,-0.969 -0.102,-1.995 -0.897,-2.605c-0.795,-0.61 -1.877,-0.685 -2.749,-0.192c-0.001,0 -0.001,0 -0.002,0c-8.047,4.557 -16.474,8.434 -25.121,11.705c-1.049,0.397 -2.102,0.785 -3.158,1.164c-2.086,0.749 -3.67,2.476 -4.239,4.618c-0.218,0.823 -0.44,1.646 -0.666,2.467c-0.176,0.641 -0.355,1.28 -0.535,1.92Z" style="fill:#faf3d2;stroke:#e9e9e9;stroke-width:1px;"/><path d="M284.032,361.808c-0.307,-0.202 -0.7,-0.221 -1.025,-0.05c-0.325,0.171 -0.531,0.506 -0.539,0.873c-0.005,0.265 -0.01,0.531 -0.016,0.796c-0.092,4.479 -0.2,8.958 -0.333,13.436c-0.075,2.514 1.254,4.861 3.449,6.089c1.563,0.867 3.138,1.713 4.724,2.536c1.813,0.941 3.954,1.009 5.823,0.185c1.869,-0.823 3.264,-2.449 3.794,-4.421c0.601,-2.238 1.172,-4.484 1.713,-6.738c0.334,-1.402 -0.338,-2.851 -1.626,-3.501c0,0 0,0 0,-0.001c-5.486,-2.769 -10.828,-5.828 -15.964,-9.204c0,0 0,0 0,0Z" style="fill:#faf3d2;stroke:#e9e9e9;stroke-width:1px;"/><path d="M182.506,385.963c0.3,1.036 1.27,1.731 2.347,1.683c0,0 0,0 0,0c1.303,-0.058 2.605,-0.134 3.907,-0.222c1.53,-0.102 3.059,-0.222 4.587,-0.355c2.071,-0.182 4.14,-0.39 6.206,-0.627c1.967,-0.225 3.931,-0.477 5.89,-0.763c1.086,-0.159 2.171,-0.33 3.255,-0.507c1.347,-0.222 2.692,-0.454 4.036,-0.698c0,0 0,0 0,0c0.505,-0.091 0.95,-0.389 1.227,-0.821c0.277,-0.432 0.362,-0.961 0.235,-1.458c-0.968,-3.792 -1.857,-7.604 -2.668,-11.433c-0.41,-1.954 -2.292,-3.234 -4.261,-2.898c0,0 0,0 0,0c-1.527,0.26 -3.057,0.507 -4.59,0.728c-1.695,0.245 -3.394,0.461 -5.095,0.656c-1.912,0.22 -3.828,0.412 -5.745,0.58c-1.967,0.172 -3.936,0.319 -5.907,0.433c-0.833,0.048 -1.666,0.091 -2.5,0.123c-0.628,0.024 -1.258,0.044 -1.887,0.048c-0.002,0 -0.004,0 -0.006,-0.001c0,0 0,0 0,0c-0.002,0 -0.004,-0.001 -0.006,-0.001c-0.233,-0.047 -0.296,-0.062 -0.529,-0.099c-0.231,-0.037 -0.464,-0.064 -0.697,-0.083c-0.517,-0.043 -1.037,-0.043 -1.553,-0.005c0,0 0,0 0,0c-0.064,0.004 -0.122,0.036 -0.16,0.088c-0.038,0.051 -0.052,0.116 -0.038,0.178c1.162,5.19 2.478,10.344 3.952,15.454Z" style="fill:#faf3d2;stroke:#e9e9e9;stroke-width:1px;"/><path d="M138.858,366.031c-2.083,-0.468 -4.26,0.17 -5.761,1.688c-1.501,1.518 -2.115,3.702 -1.624,5.78c0.406,1.71 0.826,3.416 1.263,5.118c0.643,2.48 2.635,4.382 5.141,4.909c3.425,0.713 6.87,1.332 10.328,1.857c2.718,0.413 5.444,0.768 8.177,1.067c2.181,0.239 4.342,-0.598 5.794,-2.244c1.451,-1.646 2.01,-3.896 1.499,-6.03c-0.306,-1.281 -0.604,-2.564 -0.893,-3.85c-0.628,-2.805 -2.965,-4.905 -5.822,-5.229c-6.082,-0.707 -12.127,-1.725 -18.101,-3.066c0,0 -0.001,0 -0.001,0Z" style="fill:#faf3d2;stroke:#e9e9e9;stroke-width:1px;"/><path d="M423.246,378.592c-0.155,0.635 0.003,1.306 0.425,1.806c0.423,0.5 1.058,0.768 1.71,0.722c0.001,0 0.001,0 0.001,0c8.372,-0.59 16.723,-1.475 25.029,-2.678c1.503,-0.217 3.005,-0.445 4.504,-0.684c2.705,-0.43 4.881,-2.454 5.507,-5.12c0.588,-2.535 1.141,-5.077 1.657,-7.628c0.441,-2.18 -0.222,-4.436 -1.771,-6.032c-1.549,-1.596 -3.785,-2.325 -5.977,-1.949c-8.042,1.355 -16.14,2.378 -24.263,3.101c0,0 0,0.001 0,0.001c-1.796,0.16 -3.265,1.498 -3.591,3.272c-0.941,5.09 -2.017,10.156 -3.231,15.189Z" style="fill:#faf3d2;stroke:#e9e9e9;stroke-width:1px;"/><path d="M229.627,377.036c0.242,0.959 0.859,1.78 1.713,2.279c0.853,0.498 1.872,0.633 2.826,0.373c0,0 0,0 0,0c1.237,-0.337 2.471,-0.688 3.694,-1.071c0.437,-0.137 0.872,-0.279 1.303,-0.431c0.378,-0.133 0.754,-0.274 1.123,-0.43c0.177,-0.075 0.353,-0.153 0.526,-0.237c0.048,-0.023 0.095,-0.046 0.143,-0.07c0.052,-0.025 0.104,-0.052 0.155,-0.079c0.197,-0.104 0.392,-0.209 0.59,-0.312c0.005,-0.003 0.011,-0.006 0.016,-0.009c2.144,-1.106 4.401,-1.97 6.662,-2.802l0.005,-0.002c0.823,-0.302 1.378,-1.074 1.402,-1.95c0.004,-0.142 0.007,-0.284 0.011,-0.426c0.122,-4.611 0.221,-9.222 0.303,-13.833c0,0 0,0 0,0c0.012,-0.651 -0.299,-1.264 -0.831,-1.64c-0.531,-0.375 -1.214,-0.462 -1.823,-0.233c-0.171,0.065 -0.343,0.129 -0.514,0.192c-1.396,0.519 -2.798,1.018 -4.197,1.528c-0.003,0.001 -0.005,0.002 -0.008,0.003c-0.314,0.115 -0.629,0.231 -0.943,0.347c-0.004,0.002 -0.008,0.003 -0.013,0.005c-1.494,0.557 -2.982,1.133 -4.447,1.764c-1.206,0.519 -2.396,1.075 -3.563,1.678c-0.25,0.13 -0.511,0.24 -0.78,0.327c0,0.001 0,0.001 0,0.001c-0.003,0 -0.005,0.001 -0.008,0.002c-1.11,0.358 -2.234,0.674 -3.36,0.981c0,0 0,0 0,0c-1.664,0.454 -2.687,2.124 -2.336,3.812c0.718,3.426 1.501,6.838 2.351,10.233Z" style="fill:#faf3d2;stroke:#e9e9e9;stroke-width:1px;"/><path d="M355.964,379.359c7.722,0.956 16.445,1.633 16.445,1.633c8.898,0.672 17.82,1.007 26.743,1.022c0.422,0.001 0.845,0.001 1.267,0c3.087,-0.004 5.778,-2.103 6.532,-5.097c0.602,-2.415 1.172,-4.838 1.708,-7.269c0.44,-2.002 -0.055,-4.096 -1.344,-5.69c-1.29,-1.593 -3.235,-2.513 -5.285,-2.5c-2.697,0.015 -5.394,0.001 -8.091,-0.044c-5.755,-0.096 -11.508,-0.334 -17.251,-0.719c-0.056,-0.004 -0.112,-0.009 -0.167,-0.014l-16.045,-1.481c-0.056,-0.006 -0.113,-0.012 -0.169,-0.017c-1.492,-0.176 -2.982,-0.363 -4.471,-0.56c-6.471,-0.856 -12.915,-1.914 -19.316,-3.192c-3.132,-0.625 -6.252,-1.303 -9.36,-2.036c-1.219,-0.289 -2.503,-0.059 -3.546,0.636c-1.042,0.695 -1.748,1.793 -1.949,3.029c-0.001,0 -0.001,0 -0.001,0c-0.505,3.1 -1.058,6.193 -1.661,9.276c-0.683,3.476 1.523,6.865 4.978,7.648c0,0.001 0,0.001 0.001,0.001c7.806,1.769 15.684,3.217 23.603,4.378c2.456,0.36 4.916,0.692 7.379,0.996Z" style="fill:#faf3d2;stroke:#e9e9e9;stroke-width:1px;"/><path d="M184.496,371.64c0.042,0.023 0.082,0.049 0.121,0.076c0.05,0.035 0.113,0.079 0.113,0.079c0,0 -0.001,-0.001 -0.004,-0.003c-0.06,-0.041 -0.119,-0.08 -0.18,-0.118c-0.022,-0.014 -0.044,-0.027 -0.062,-0.039c-0.001,0 -0.001,-0.001 0,-0.001c0,-0.001 0.001,-0.001 0.001,-0.001c0.004,0.002 0.008,0.005 0.011,0.007Z" style="fill:#faf3d2;stroke:#e9e9e9;stroke-width:1px;"/><path d="M177.407,365.136c0.018,0.087 0.094,0.149 0.182,0.15c0,-0.001 0,-0.001 0,-0.001c0.148,0.001 0.295,0.001 0.442,0.002c0.162,0 0.529,0.002 0.736,-0.003c0.079,-0.002 0.157,-0.005 0.236,-0.008c0.014,-0.001 0.029,-0.002 0.043,-0.002c0,0 0,0 0,0c0.033,-0.002 0.066,-0.001 0.099,0.002l0.131,0.012c0.159,0.012 0.165,0.013 0.313,0.023c0.026,0.002 0.052,0.003 0.077,0.005c0.8,0.044 1.601,0.045 2.402,0.036c0.912,-0.01 1.823,-0.033 2.734,-0.063c2.639,-0.086 5.277,-0.222 7.912,-0.386c2.239,-0.14 4.477,-0.302 6.712,-0.49c1.955,-0.164 3.907,-0.347 5.858,-0.555c0,0 0,0 0.001,0c1.23,-0.131 2.352,-0.766 3.099,-1.752c0.747,-0.987 1.052,-2.239 0.845,-3.459c-0.659,-3.907 -1.239,-7.828 -1.744,-11.758c-0.273,-2.156 -2.222,-3.697 -4.383,-3.466c0,-0.001 0,-0.001 0,-0.001c-3.547,0.379 -7.102,0.67 -10.661,0.904c-2.148,0.142 -4.296,0.261 -6.446,0.352c-0.84,0.035 -1.681,0.066 -2.521,0.09c-0.674,0.019 -1.348,0.033 -2.022,0.036c-0.004,0 -0.007,0 -0.011,0c0,0 0,0 0,0c-0.016,0 -0.033,-0.001 -0.049,-0.004c-0.002,0 -0.004,0 -0.006,-0.001c-0.05,-0.008 -0.101,-0.016 -0.152,-0.024c-0.033,-0.005 -0.071,-0.01 -0.103,-0.015c-0.056,-0.008 -0.112,-0.016 -0.168,-0.023c-0.311,-0.037 -0.621,-0.067 -0.934,-0.081c-0.399,-0.017 -0.798,-0.014 -1.196,0.008c-0.245,0.013 -0.49,0.035 -0.734,0.06c-0.004,0.001 -0.008,0.001 -0.012,0.001c-0.008,0.001 -0.023,0.003 -0.037,0.005c-0.031,0.003 -0.061,0.005 -0.092,0.005c0,0 -0.001,0 -0.001,0c-0.99,-0.003 -1.932,0.424 -2.583,1.171c-0.65,0.746 -0.945,1.738 -0.808,2.718c0.785,5.53 1.73,11.038 2.841,16.512Z" style="fill:#faf3d2;stroke:#e9e9e9;stroke-width:1px;"/><path d="M127.49,308.761c-0.927,-0.115 -1.859,0.179 -2.552,0.805c-0.694,0.627 -1.082,1.523 -1.063,2.458c0,0 0,0.001 0,0.001c0.08,3.858 0.229,7.715 0.449,11.567c0.189,3.3 0.431,6.597 0.727,9.889c0.801,8.925 1.998,17.819 3.619,26.635c0.063,0.344 0.331,0.613 0.675,0.679c0,0 0,0 0.001,0c5.344,1.015 10.724,1.847 16.124,2.509c2.171,0.266 4.346,0.504 6.523,0.715c2.081,0.204 4.139,-0.57 5.571,-2.094c1.432,-1.524 2.076,-3.625 1.743,-5.69c-0.375,-2.34 -0.722,-4.685 -1.041,-7.033c-0.416,-3.086 -2.889,-5.486 -5.985,-5.809c-1.693,-0.176 -3.383,-0.371 -5.071,-0.583c-6.965,-0.876 -13.892,-2.06 -20.742,-3.593c-0.001,0 -0.001,-0.001 -0.002,-0.001c-0.019,-0.005 -0.031,-0.024 -0.027,-0.043c0.003,-0.019 0.021,-0.032 0.041,-0.03c5.701,0.663 11.417,1.2 17.14,1.625c1.935,0.144 3.871,0.275 5.807,0.394c1.959,0.121 3.874,-0.618 5.244,-2.023c1.37,-1.405 2.061,-3.337 1.891,-5.292c-0.279,-3.229 -0.509,-6.462 -0.691,-9.697c-0.22,-3.927 -0.37,-7.859 -0.451,-11.792c0,0 0,0 0,0c-0.014,-0.673 -0.544,-1.221 -1.215,-1.257c-0.215,-0.012 -0.43,-0.024 -0.645,-0.036c-7.264,-0.405 -14.518,-0.995 -21.749,-1.798c-1.441,-0.16 -2.881,-0.329 -4.321,-0.506Z" style="fill:#faf3d2;stroke:#e9e9e9;stroke-width:1px;"/><path d="M244.726,273.043c1.393,0.158 2.786,-0.29 3.826,-1.23c1.039,-0.941 1.624,-2.283 1.605,-3.684c-0.068,-5.055 -0.149,-10.109 -0.242,-15.163c-0.124,-6.754 -0.271,-13.508 -0.448,-20.261c-0.15,-5.687 -0.321,-11.374 -0.524,-17.059c-0.115,-3.213 -0.239,-6.425 -0.381,-9.637c-0.031,-0.707 -0.476,-1.33 -1.135,-1.588c0,0 0,0 0,0c-0.984,-0.386 -1.971,-0.762 -2.962,-1.129c-1.654,-0.614 -3.488,-0.526 -5.076,0.243c-1.588,0.77 -2.793,2.155 -3.335,3.834c-0.001,0 -0.001,0.001 -0.001,0.001c-0.778,2.407 -1.521,4.826 -2.231,7.255c-0.482,1.654 0.414,3.396 2.041,3.965c0,0 0,0 0,0c3,1.048 5.967,2.19 8.893,3.43c0.956,0.405 1.907,0.82 2.854,1.246c0,0 0.001,0.001 0.002,0.001c0.058,0.027 0.085,0.095 0.063,0.155c-0.023,0.061 -0.088,0.093 -0.15,0.075c-0.233,-0.067 -0.467,-0.134 -0.7,-0.2c-3.746,-1.068 -7.523,-2.03 -11.323,-2.892c-1.745,-0.393 -3.488,0.669 -3.94,2.4c0,0.001 0,0.001 -0.001,0.001c-1.309,5.024 -2.488,10.082 -3.543,15.166c-0.2,0.969 0.416,1.918 1.382,2.129c0.001,0 0.002,0.001 0.003,0.001c0.047,0.012 0.077,0.058 0.068,0.106c-0.009,0.048 -0.053,0.081 -0.102,0.075c0,0 0,0 0,0c-1.009,-0.114 -1.936,0.565 -2.13,1.561c-0.323,1.66 -0.634,3.322 -0.931,4.987c-0.976,5.461 -1.814,10.946 -2.516,16.448c-0.224,1.776 0.268,3.569 1.366,4.982c1.099,1.413 2.714,2.332 4.491,2.554c1.784,0.223 3.567,0.458 5.347,0.708c3.214,0.452 6.42,0.951 9.618,1.504c0.037,0.006 0.074,0.012 0.111,0.016c0,0 0.001,0 0.001,0Z" style="fill:#faf3d2;stroke:#e9e9e9;stroke-width:1px;"/><path d="M387.453,321.146c-3.611,-0.074 -6.639,2.708 -6.87,6.312c-0.362,5.475 -0.863,10.941 -1.509,16.39c-0.228,1.889 0.352,3.786 1.598,5.225c1.246,1.438 3.041,2.283 4.944,2.326c4.906,0.11 9.813,0.161 14.72,0.156c1.968,-0.001 3.936,-0.012 5.904,-0.032c3.357,-0.033 6.178,-2.53 6.619,-5.857c0.532,-4.05 0.979,-8.111 1.344,-12.178c0.296,-3.292 0.537,-6.589 0.726,-9.889c0,0 0,-0.001 0,-0.001c0.037,-0.648 -0.198,-1.283 -0.649,-1.75c-0.451,-0.468 -1.077,-0.725 -1.726,-0.712c-4.848,0.101 -9.697,0.144 -14.546,0.13c-3.518,-0.01 -7.037,-0.05 -10.555,-0.12Z" style="fill:#faf3d2;stroke:#e9e9e9;stroke-width:1px;"/><path d="M429.221,345.625c-0.167,1.313 0.258,2.632 1.16,3.601c0.901,0.969 2.187,1.487 3.508,1.415c0,0.001 0,0.001 0,0.001c8.599,-0.466 17.19,-1.115 25.759,-1.971c3.135,-0.318 5.632,-2.764 6.015,-5.893c0.375,-3.091 0.701,-6.189 0.979,-9.29c0.296,-3.292 0.537,-6.589 0.726,-9.889c0,0 0,0 0,-0.001c0.09,-1.557 -0.511,-3.074 -1.642,-4.148c-1.131,-1.074 -2.677,-1.595 -4.228,-1.425c-1.074,0.118 -2.149,0.232 -3.225,0.343c-6.969,0.719 -13.954,1.292 -20.946,1.734c-3.399,0.211 -6.107,2.923 -6.314,6.322c-0.404,6.417 -0.999,12.821 -1.792,19.201Z" style="fill:#faf3d2;stroke:#e9e9e9;stroke-width:1px;"/><path d="M332.803,317.42c-1.856,-0.225 -3.721,0.329 -5.152,1.531c-1.431,1.201 -2.3,2.943 -2.398,4.809c-0.299,5.471 -0.737,10.934 -1.317,16.381c-0.4,3.675 2.232,6.986 5.902,7.426c2.799,0.336 5.602,0.647 8.407,0.936c5.753,0.593 11.515,1.092 17.283,1.504c3.57,0.252 6.716,-2.328 7.166,-5.879c0.446,-3.54 0.828,-7.088 1.147,-10.64c0.295,-3.292 0.537,-6.589 0.726,-9.889c0,0 0,0 0,0c0.105,-1.845 -1.298,-3.43 -3.143,-3.548c-5.833,-0.377 -11.66,-0.846 -17.478,-1.415c-3.719,-0.363 -7.434,-0.767 -11.143,-1.216Z" style="fill:#faf3d2;stroke:#e9e9e9;stroke-width:1px;"/><path d="M184.159,345.645c0.054,0.023 0.108,0.047 0.16,0.074c0.056,0.028 0.121,0.062 0.121,0.062c0,0 0,0 0,0c-0.069,-0.035 -0.139,-0.069 -0.21,-0.101c-0.025,-0.012 -0.05,-0.023 -0.071,-0.033c-0.001,0 -0.001,-0.001 -0.001,-0.001c0,-0.001 0.001,-0.001 0.001,-0.001c0,0 0,0 0,0Z" style="fill:#faf3d2;stroke:#e9e9e9;stroke-width:1px;"/><path d="M184.03,312.316c0.052,0.013 0.105,0.028 0.156,0.045c0.012,0.003 0.023,0.007 0.033,0.01c0.001,0 0.001,0.001 0.001,0.001c0,0 -0.001,0 -0.001,0c-0.049,-0.014 -0.142,-0.04 -0.212,-0.06c-0.001,0 -0.001,-0.001 -0.001,-0.001c0,-0.001 0.001,-0.001 0.002,-0.001c0.007,0.002 0.014,0.004 0.022,0.006Z" style="fill:#faf3d2;stroke:#e9e9e9;stroke-width:1px;"/><path d="M183.16,312.093c0.04,0.008 0.08,0.017 0.12,0.027c0.015,0.004 0.031,0.008 0.048,0.013c0.001,0 0.001,0.001 0.001,0.002c0,0 -0.001,0.001 -0.002,0.001c-0.059,-0.014 -0.122,-0.029 -0.158,-0.038c-0.021,-0.005 -0.042,-0.01 -0.063,-0.014c-0.011,-0.002 -0.021,-0.004 -0.021,-0.004c0.025,0.004 0.05,0.009 0.075,0.013Z" style="fill:#faf3d2;stroke:#e9e9e9;stroke-width:1px;"/><path d="M413.908,273.602c-0.165,-1.712 -1.601,-3.021 -3.322,-3.027c-2.868,-0.01 -5.735,-0.016 -8.603,-0.019c-0.002,0 -0.003,0 -0.005,0c-1.126,0 -2.252,-0.001 -3.378,0c0,0 -0.001,0 -0.002,0c-3.899,0.002 -7.797,0.011 -11.695,0.027c-1.877,0.008 -3.665,0.797 -4.936,2.178c-1.27,1.381 -1.908,3.229 -1.76,5.099c0.105,1.314 0.202,2.629 0.292,3.944c0.57,8.346 0.843,16.714 0.806,25.08c-0.002,0.494 -0.005,0.989 -0.009,1.484c-0.002,0.151 0.057,0.296 0.163,0.404c0.106,0.107 0.251,0.168 0.402,0.169c0,0 0,0 0,0c9.629,0.056 19.258,0.066 28.887,0.033c0,0 0,0 0,0c2.602,-0.01 4.704,-2.125 4.696,-4.727c-0.01,-2.821 -0.057,-5.641 -0.14,-8.461c-0.218,-7.407 -0.686,-14.807 -1.396,-22.183c0,0 0,0 0,-0.001Z" style="fill:#faf3d2;stroke:#e9e9e9;stroke-width:1px;"/><path d="M363.545,273.603c-0.154,-1.6 -1.508,-2.815 -3.115,-2.794c-7.597,0.099 -15.193,0.23 -22.788,0.395c-2.123,0.046 -4.246,0.095 -6.369,0.146c-1.85,0.045 -3.6,0.848 -4.841,2.221c-1.24,1.373 -1.862,3.195 -1.721,5.04c0.083,1.064 0.161,2.128 0.233,3.193c0.571,8.346 0.843,16.714 0.807,25.08c0,0 0,0 0,0.001c-0.003,0.651 0.515,1.186 1.167,1.203c7.663,0.201 15.327,0.364 22.992,0.493c2.772,0.047 5.544,0.09 8.316,0.129c1.818,0.025 3.569,-0.685 4.857,-1.968c1.287,-1.284 2.002,-3.033 1.982,-4.851c-0.022,-2.035 -0.064,-4.07 -0.124,-6.105c-0.218,-7.407 -0.685,-14.807 -1.395,-22.183c0,0 -0.001,0 -0.001,0Z" style="fill:#faf3d2;stroke:#e9e9e9;stroke-width:1px;"/><path d="M490.074,271.989c-1.916,-0.066 -3.77,0.687 -5.097,2.069c-1.328,1.383 -2.005,3.265 -1.862,5.177c0.065,0.856 0.127,1.712 0.186,2.569c0.57,8.346 0.842,16.714 0.806,25.08c0,0 0,0 0,0c-0.001,0.229 0.091,0.448 0.255,0.607c0.163,0.159 0.385,0.245 0.613,0.238c5.725,-0.184 11.449,-0.392 17.172,-0.63c3.864,-0.16 7.726,-0.335 11.588,-0.527c2.551,-0.128 4.544,-2.249 4.511,-4.803c0,0 0,0 0,0c-0.081,-6.408 -0.376,-12.813 -0.876,-19.202c-0.104,-1.316 -0.215,-2.63 -0.336,-3.944c-0.289,-3.163 -2.865,-5.629 -6.037,-5.78c0,0 0,0 0,0c-6.973,-0.332 -13.947,-0.613 -20.923,-0.854Z" style="fill:#faf3d2;stroke:#e9e9e9;stroke-width:1px;"/><path d="M282.887,300.029c0.014,3.591 2.839,6.542 6.426,6.712c3.024,0.143 6.048,0.275 9.072,0.399c1.367,0.056 2.734,0.111 4.101,0.163c1.852,0.072 3.651,-0.621 4.976,-1.916c1.325,-1.295 2.059,-3.077 2.03,-4.93c-0.024,-1.557 -0.059,-3.114 -0.105,-4.671c-0.218,-7.407 -0.686,-14.807 -1.396,-22.183c0,0 0,0 0,0c-0.084,-0.874 -0.835,-1.532 -1.713,-1.5c-5.526,0.201 -11.051,0.427 -16.575,0.686c-0.607,0.028 -1.213,0.057 -1.82,0.086c-2.906,0.139 -5.182,2.552 -5.152,5.462c0,0 0,0 0,0c0.075,7.231 0.127,14.461 0.156,21.692Z" style="fill:#faf3d2;stroke:#e9e9e9;stroke-width:1px;"/><path d="M171.578,306.962c0,0.047 0.038,0.085 0.085,0.086c0,0 0,0 0,0c1.7,0.004 3.4,0.008 5.1,0.009c0.612,0 1.224,0.002 1.835,0c0.011,0 0.023,0 0.034,0c0.239,-0.002 0.479,-0.006 0.719,-0.009c0.128,-0.001 0.128,-0.001 0.256,0.005l0.158,0.004c0.027,0.001 0.053,0.001 0.08,0.001c0.156,0.003 0.313,0.004 0.469,0.005c0.008,0 0.016,0 0.024,0c0.543,0.002 1.087,0.002 1.63,0.002c0.002,0 0.004,0 0.006,0c3.563,-0.006 7.127,-0.027 10.69,-0.054c3.695,-0.027 7.391,-0.062 11.086,-0.106c0,0 0.174,-0.002 0.386,-0.005c0.411,-0.005 0.74,-0.34 0.739,-0.75c0,0 0,-0.001 0,-0.001c-0.007,-3.616 0.042,-7.233 0.149,-10.847c0.152,-5.161 0.419,-10.319 0.8,-15.468c0.14,-1.86 -0.497,-3.695 -1.759,-5.069c-1.262,-1.374 -3.037,-2.163 -4.903,-2.181c-8.034,-0.073 -16.069,-0.102 -24.104,-0.091c0,0 -0.345,0.001 -0.736,0.002c-0.626,0.001 -1.15,0.477 -1.21,1.101c0,0 0,0 0,0.001c-0.71,7.376 -1.178,14.776 -1.396,22.183c-0.11,3.726 -0.156,7.454 -0.138,11.182Z" style="fill:#faf3d2;stroke:#e9e9e9;stroke-width:1px;"/><path d="M123.858,299.678c-0.067,3.712 2.878,6.78 6.59,6.865c6.036,0.135 12.072,0.241 18.109,0.32c3.718,0.048 6.774,-2.922 6.832,-6.64c0.021,-1.401 0.05,-2.802 0.089,-4.203c0.147,-5.371 0.419,-10.739 0.814,-16.097c0.141,-1.886 -0.516,-3.745 -1.811,-5.123c-1.295,-1.378 -3.109,-2.15 -5.001,-2.125c-3.459,0.043 -6.918,0.095 -10.377,0.157c-4.413,0.079 -8.825,0.171 -13.237,0.281c-0.271,0.007 -0.494,0.214 -0.52,0.483c0,0.001 0,0.001 0,0.001c-0.711,7.376 -1.178,14.776 -1.396,22.183c-0.039,1.299 -0.069,2.598 -0.092,3.898Z" style="fill:#faf3d2;stroke:#e9e9e9;stroke-width:1px;"/><path d="M126.228,265.468c-0.159,1.335 0.301,2.669 1.249,3.623c0.948,0.953 2.28,1.421 3.616,1.27c0,0.001 0,0.001 0,0.001c4.663,-0.527 9.336,-0.965 14.015,-1.322c2.196,-0.167 4.394,-0.317 6.593,-0.449c3.25,-0.196 5.897,-2.687 6.29,-5.919c0.797,-6.472 1.776,-12.922 2.935,-19.338c0,-0.001 0,-0.001 0,-0.001c0.244,-1.353 -0.141,-2.744 -1.047,-3.778c-0.905,-1.034 -2.233,-1.6 -3.606,-1.536c-1.745,0.081 -3.49,0.171 -5.234,0.272c-5.237,0.302 -10.468,0.693 -15.69,1.184c-3.001,0.286 -5.448,2.528 -5.994,5.493c-0.115,0.621 -0.228,1.242 -0.339,1.863c-1.106,6.184 -2.034,12.4 -2.788,18.637Z" style="fill:#faf3d2;stroke:#e9e9e9;stroke-width:1px;"/><path d="M184.189,237.544c-3.268,-0.038 -6.092,2.272 -6.704,5.482c-0.242,1.267 -0.476,2.535 -0.703,3.805c-1.061,5.937 -1.959,11.903 -2.696,17.889c-0.096,0.783 0.15,1.568 0.674,2.158c0.524,0.589 1.275,0.925 2.064,0.922c0,0.001 0,0.001 0.001,0.001c7.897,-0.029 15.796,0.143 23.685,0.531c3.535,0.18 6.608,-2.403 7.038,-5.917c0.792,-6.385 1.76,-12.749 2.903,-19.081c0,0 0,-0.001 0.001,-0.001c0.216,-1.198 -0.091,-2.43 -0.842,-3.387c-0.752,-0.957 -1.878,-1.546 -3.092,-1.62c-4.961,-0.292 -9.927,-0.504 -14.894,-0.638c-2.478,-0.067 -4.957,-0.115 -7.435,-0.144Z" style="fill:#faf3d2;stroke:#e9e9e9;stroke-width:1px;"/><path d="M357.579,235.213c-0.719,-3.296 -3.763,-5.553 -7.126,-5.285c-4.741,0.38 -9.478,0.822 -14.208,1.327c-3.616,0.386 -7.229,0.81 -10.836,1.274c-1.842,0.238 -3.504,1.226 -4.594,2.729c-1.091,1.503 -1.513,3.39 -1.168,5.215c0.019,0.102 0.038,0.204 0.058,0.307c1.23,6.526 2.271,13.089 3.126,19.675c0,0 0,0.001 0,0.001c0.101,0.775 0.506,1.477 1.127,1.952c0.621,0.474 1.405,0.682 2.179,0.576c6.104,-0.83 12.225,-1.533 18.355,-2.125c3.381,-0.327 6.765,-0.62 10.151,-0.882c1.882,-0.144 3.617,-1.071 4.784,-2.554c1.167,-1.484 1.659,-3.389 1.357,-5.252c-0.255,-1.575 -0.522,-3.148 -0.799,-4.719c-0.724,-4.094 -1.525,-8.175 -2.406,-12.239Z" style="fill:#faf3d2;stroke:#e9e9e9;stroke-width:1px;"/><path d="M431.807,228.795c-2.077,-0.103 -4.085,0.758 -5.443,2.332c-1.358,1.575 -1.914,3.688 -1.506,5.728c0.262,1.306 0.517,2.615 0.764,3.925c1.003,5.32 1.88,10.663 2.633,16.025c0.174,1.248 1.209,2.197 2.468,2.262c0,0 0,0 0,0c9.673,0.499 19.334,1.24 28.966,2.262c0,0 0,0 0.001,0c1.285,0.136 2.561,-0.33 3.456,-1.263c0.896,-0.932 1.309,-2.226 1.12,-3.505c-0.451,-3.043 -0.944,-6.08 -1.48,-9.109c-0.696,-3.938 -1.463,-7.864 -2.305,-11.773c-0.624,-2.883 -3.049,-5.026 -5.987,-5.29c-0.238,-0.022 -0.477,-0.044 -0.715,-0.065c-7.313,-0.65 -14.639,-1.156 -21.972,-1.529Z" style="fill:#faf3d2;stroke:#e9e9e9;stroke-width:1px;"/><path d="M407.27,232.192c-0.56,-2.447 -2.732,-4.185 -5.242,-4.195c0,0 0,0 0,0c-0.001,0 -0.002,0 -0.003,0c-0.95,-0.003 -1.899,-0.004 -2.849,-0.004c-0.002,0 -0.004,0 -0.006,0c-3.367,0.005 -6.734,0.032 -10.101,0.088c-2.755,0.046 -5.51,0.109 -8.264,0.191c-1.987,0.059 -3.847,0.991 -5.083,2.548c-1.236,1.557 -1.722,3.579 -1.329,5.528c0.299,1.475 0.587,2.952 0.866,4.432c0.75,3.976 1.429,7.965 2.039,11.965c0.509,3.364 3.445,5.822 6.847,5.732c5.387,-0.137 10.776,-0.202 16.165,-0.197c1.284,0.001 2.568,0.006 3.852,0.015c1.993,0.013 3.889,-0.855 5.181,-2.372c1.292,-1.516 1.847,-3.527 1.517,-5.492c-0.167,-0.994 -0.338,-1.987 -0.513,-2.979c-0.903,-5.11 -1.927,-10.2 -3.077,-15.26Z" style="fill:#faf3d2;stroke:#e9e9e9;stroke-width:1px;"/><path d="M472.61,205.128c-0.748,-0.164 -1.527,0.081 -2.048,0.643c-0.52,0.562 -0.704,1.357 -0.483,2.09c0,0.001 0,0.001 0,0.002c1.612,5.357 3.07,10.76 4.387,16.197c0,0 0,0 0.001,0c0.409,1.691 1.717,3.018 3.402,3.451c4.71,1.22 9.386,2.574 14.013,4.078c5.606,1.821 11.143,3.862 16.57,6.164c0,0 0.001,0 0.001,0c0.405,0.172 0.872,0.101 1.207,-0.184c0.335,-0.285 0.481,-0.734 0.377,-1.161c-0.786,-3.216 -1.632,-6.418 -2.542,-9.601c-0.896,-3.133 -1.854,-6.248 -2.881,-9.341c-0.058,-0.175 -0.116,-0.35 -0.175,-0.525c-0.672,-2.007 -2.246,-3.583 -4.253,-4.255c-1.986,-0.663 -3.98,-1.301 -5.981,-1.914c-4.916,-1.506 -9.877,-2.863 -14.871,-4.084c-2.235,-0.547 -4.477,-1.067 -6.724,-1.56Z" style="fill:#faf3d2;stroke:#e9e9e9;stroke-width:1px;"/><path d="M189.694,214.485c-3.133,-0.118 -5.935,1.939 -6.76,4.963c-0.307,1.118 -0.606,2.237 -0.898,3.358c-0.888,3.405 -1.715,6.825 -2.485,10.259c-0.095,0.425 0.007,0.871 0.278,1.213c0.272,0.342 0.683,0.543 1.119,0.547c0,0 0.001,0 0.001,0c6.847,0.065 13.691,0.399 20.511,1.019c1.383,0.125 2.765,0.263 4.146,0.412c3.425,0.369 6.578,-1.903 7.313,-5.269c0.78,-3.559 1.619,-7.105 2.52,-10.635c0.226,-0.884 0.063,-1.822 -0.449,-2.576c-0.512,-0.755 -1.323,-1.253 -2.228,-1.369c0,0 0,0 0,0c-7.656,-0.978 -15.356,-1.612 -23.068,-1.922Z" style="fill:#faf3d2;stroke:#e9e9e9;stroke-width:1px;"/><path d="M424.286,198.352c-2.208,-0.145 -4.347,0.804 -5.723,2.537c-1.375,1.734 -1.813,4.033 -1.17,6.15c0.081,0.275 0.164,0.549 0.247,0.824c0.625,2.076 1.226,4.16 1.806,6.25c0.76,2.746 3.164,4.717 6.006,4.926c5.721,0.429 11.431,1.006 17.121,1.738c1.545,0.199 3.089,0.409 4.631,0.631c2.28,0.325 4.568,-0.534 6.069,-2.281c1.502,-1.746 2.008,-4.138 1.343,-6.343c-0.388,-1.295 -0.786,-2.588 -1.194,-3.877c-0.459,-1.451 -0.931,-2.898 -1.415,-4.341c-0.703,-2.091 -2.532,-3.601 -4.718,-3.897c0,0 0,0 0,0c-7.639,-1.032 -15.312,-1.799 -23.003,-2.317Z" style="fill:#faf3d2;stroke:#e9e9e9;stroke-width:1px;"/><path d="M281.524,218.918c0.004,0.099 0.061,0.189 0.15,0.234c0.088,0.045 0.194,0.038 0.276,-0.018c0.001,0 0.001,0 0.001,0c1.435,-0.978 2.888,-1.931 4.356,-2.859c2.499,-1.579 5.043,-3.086 7.626,-4.524c1.006,-0.558 1.479,-1.747 1.132,-2.844c0,0 0,0 0,0c-1.549,-4.899 -3.24,-9.753 -5.099,-14.542c0,0 0,-0.001 0,-0.001c-0.011,-0.028 -0.033,-0.05 -0.061,-0.061c-0.029,-0.01 -0.06,-0.008 -0.087,0.006c-1.842,0.962 -3.669,1.956 -5.477,2.98c-2.206,1.252 -3.523,3.636 -3.409,6.17c0.061,1.388 0.121,2.776 0.178,4.164c0.154,3.765 0.291,7.53 0.414,11.295Z" style="fill:#faf3d2;stroke:#e9e9e9;stroke-width:1px;"/><path d="M397.612,198.967c-0.312,-0.855 -1.129,-1.42 -2.039,-1.409c0,0 -0.001,0 -0.001,0c-2.776,0.031 -5.553,0.094 -8.328,0.188c-4.743,0.161 -9.483,0.415 -14.217,0.764c-2.041,0.152 -3.902,1.223 -5.06,2.912c-1.157,1.688 -1.485,3.81 -0.891,5.769c0.066,0.224 0.134,0.448 0.201,0.672c0.612,2.031 1.201,4.069 1.769,6.113c0.857,3.09 3.772,5.148 6.971,4.924c3.6,-0.249 7.204,-0.44 10.811,-0.574c2.615,-0.098 5.231,-0.165 7.848,-0.203c1.318,-0.02 2.636,-0.03 3.955,-0.036c0.003,0 0.007,0 0.011,0c0.554,-0.001 1.108,-0.002 1.663,-0.001l0.005,0c0.807,0.002 1.568,-0.377 2.053,-1.022c0.485,-0.645 0.638,-1.481 0.413,-2.256c-0.576,-1.974 -1.173,-3.941 -1.794,-5.901c-1.055,-3.336 -2.176,-6.651 -3.37,-9.94Z" style="fill:#faf3d2;stroke:#e9e9e9;stroke-width:1px;"/><path d="M137.018,212.973c-0.064,0.215 -0.009,0.448 0.145,0.611c0.153,0.164 0.383,0.234 0.601,0.183c0.001,0 0.001,0 0.001,0c9.922,-2.297 20.048,-3.697 30.215,-4.265c0,0 0,0 0,0c0.555,-0.031 1.03,-0.406 1.188,-0.938c0.884,-2.967 1.816,-5.919 2.798,-8.855c0,0 0,0 0.001,-0.001c0.596,-1.783 0.268,-3.747 -0.877,-5.239c-1.145,-1.492 -2.956,-2.318 -4.834,-2.203c-1.051,0.063 -2.102,0.134 -3.152,0.213c-5.389,0.406 -10.763,1.027 -16.102,1.872c-2.409,0.388 -4.421,2.047 -5.261,4.339c-1.049,2.874 -2.04,5.769 -2.981,8.68c-0.601,1.861 -1.181,3.729 -1.742,5.603Z" style="fill:#faf3d2;stroke:#e9e9e9;stroke-width:1px;"/><path d="M193.116,192.426c-0.707,-0.05 -1.365,0.365 -1.625,1.025c0,0 0,0 0,0c-1.803,4.585 -3.45,9.231 -4.964,13.919c0,0 0,0 0,0c-0.153,0.472 -0.077,0.987 0.205,1.395c0.282,0.407 0.738,0.66 1.232,0.684c5.734,0.289 11.454,0.844 17.135,1.673c2.09,0.305 4.175,0.647 6.252,1.027c3.376,0.619 6.678,-1.397 7.671,-4.682c0.787,-2.598 1.609,-5.184 2.47,-7.758c0,0 0,0 0,-0.001c0.252,-0.752 0.171,-1.576 -0.223,-2.265c-0.394,-0.689 -1.064,-1.177 -1.84,-1.341c-2.049,-0.432 -4.106,-0.829 -6.168,-1.193c-6.666,-1.176 -13.393,-2 -20.145,-2.483Z" style="fill:#faf3d2;stroke:#e9e9e9;stroke-width:1px;"/><path d="M465.255,177.301c-1.356,-0.354 -2.796,0.093 -3.712,1.153c-0.917,1.06 -1.151,2.549 -0.605,3.839c-0.002,0.001 -0.002,0.002 -0.001,0.002c1.631,3.856 3.148,7.76 4.568,11.698c0.001,0 0.001,0.001 0.001,0.001c0.334,0.927 1.089,1.64 2.034,1.921c2.065,0.615 4.121,1.262 6.166,1.941c6.613,2.195 13.116,4.724 19.455,7.615c2.343,1.069 4.664,2.186 6.959,3.355c0.278,0.143 0.615,0.098 0.846,-0.111c0.232,-0.21 0.31,-0.54 0.196,-0.831c0,-0.001 0,-0.001 0,-0.002c-0.873,-2.235 -1.792,-4.452 -2.764,-6.646c-0.933,-2.104 -1.916,-4.187 -2.965,-6.236c-0.816,-1.595 -1.672,-3.169 -2.586,-4.71c-0.794,-1.339 -1.63,-2.654 -2.547,-3.912c-0.001,-0.002 -0.002,-0.003 -0.004,-0.005c0,0 0,0 0,0c-0.148,-0.202 -0.329,-0.378 -0.534,-0.522c-0.431,-0.3 -0.867,-0.594 -1.3,-0.891c-0.453,-0.311 -0.941,-0.566 -1.456,-0.759c-1.654,-0.62 -3.316,-1.219 -4.984,-1.798c-5.521,-1.917 -11.116,-3.614 -16.767,-5.102Z" style="fill:#faf3d2;stroke:#e9e9e9;stroke-width:1px;"/><path d="M339.823,181.128c-1.306,-2.736 -4.382,-4.147 -7.308,-3.352c0,0 0,0 -0.001,0c-7.428,2.018 -14.758,4.401 -21.94,7.172c-0.001,0 -0.001,0 -0.001,0c-3.27,1.261 -4.928,4.908 -3.73,8.202c0.103,0.281 0.205,0.562 0.306,0.843c0.354,0.982 0.702,1.967 1.045,2.953c0.6,1.726 1.875,3.134 3.532,3.903c1.658,0.769 3.557,0.832 5.262,0.176c2.367,-0.913 4.752,-1.777 7.153,-2.597c4.334,-1.481 8.717,-2.817 13.139,-4.013c1.907,-0.513 3.493,-1.837 4.34,-3.622c0.846,-1.784 0.867,-3.85 0.058,-5.652c-0.402,-0.905 -0.814,-1.805 -1.234,-2.701c-0.205,-0.438 -0.412,-0.876 -0.621,-1.312Z" style="fill:#faf3d2;stroke:#e9e9e9;stroke-width:1px;"/><path d="M405.444,169.086c-0.664,-0.013 -1.288,0.321 -1.644,0.882c-0.356,0.562 -0.393,1.268 -0.097,1.864c0.055,0.11 0.109,0.22 0.164,0.33c1.646,3.33 3.183,6.713 4.63,10.133c0.312,0.736 0.619,1.473 0.922,2.212c0.509,1.241 1.689,2.076 3.028,2.143c0,0 0,0 0,0c11.356,0.569 22.677,1.909 33.841,4.07c0,0 0.001,0 0.001,0c0.125,0.024 0.253,-0.022 0.334,-0.121c0.081,-0.099 0.101,-0.234 0.052,-0.352c-1.084,-2.628 -2.224,-5.232 -3.429,-7.807c-1.611,-3.442 -3.336,-6.832 -5.221,-10.132c0,0 0,0 0,0c-0.211,-0.37 -0.581,-0.622 -1.003,-0.682c-7.494,-1.062 -15.035,-1.792 -22.592,-2.202c-2.993,-0.163 -5.989,-0.275 -8.985,-0.338c-0.001,0 -0.001,0 -0.001,0Z" style="fill:#faf3d2;stroke:#e9e9e9;stroke-width:1px;"/><path d="M384.684,170.757c-0.461,-0.78 -1.321,-1.234 -2.226,-1.176c0,0 0,0 0,0c-8.874,0.57 -17.721,1.585 -26.49,3.062c0,0 -0.001,0 -0.001,0c-0.485,0.081 -0.904,0.386 -1.131,0.822c-0.227,0.436 -0.237,0.954 -0.025,1.398c1.161,2.453 2.266,4.933 3.324,7.432c0.306,0.725 0.609,1.45 0.907,2.178c1.171,2.846 4.12,4.54 7.168,4.115c6.86,-0.937 13.761,-1.575 20.676,-1.927c0.47,-0.024 0.94,-0.047 1.411,-0.068c0.973,-0.045 1.86,-0.572 2.364,-1.406c0.504,-0.834 0.559,-1.864 0.146,-2.747c0,0 0,0 0,0c-1.611,-3.442 -3.336,-6.832 -5.221,-10.132c-0.296,-0.519 -0.597,-1.037 -0.902,-1.551Z" style="fill:#faf3d2;stroke:#e9e9e9;stroke-width:1px;"/><path d="M493.542,188.064c0.019,0.011 0.031,0.029 0.034,0.051c0.004,0.021 -0.004,0.042 -0.019,0.057c-0.459,-0.311 -0.936,-0.592 -1.403,-0.887c-0.003,-0.001 -0.005,-0.003 -0.008,-0.004c0,0 0,0 0,0c0.466,0.261 0.931,0.522 1.396,0.783Z" style="fill:#faf3d2;stroke:#e9e9e9;stroke-width:1px;"/></g></g></g></svg>