<?xml version="1.0" encoding="UTF-8" standalone="no"?><!DOCTYPE svg PUBLIC "-//W3C//DTD SVG 1.1//EN" "http://www.w3.org/Graphics/SVG/1.1/DTD/svg11.dtd"><svg width="100%" height="100%" viewBox="0 0 683 415" version="1.1" xmlns="http://www.w3.org/2000/svg" xmlns:xlink="http://www.w3.org/1999/xlink" xml:space="preserve" style="fill-rule:evenodd;clip-rule:evenodd;stroke-linejoin:round;stroke-miterlimit:1.41421;"><g><path d="M454.755,0.971c2.656,0.011 5.311,0.053 7.965,0.138c4.776,0.152 9.548,0.43 14.309,0.836c14.845,1.264 29.586,3.767 44.003,7.527c25.493,6.647 50,17.235 72.06,31.67c3.047,1.994 6.048,4.061 8.996,6.2c3.441,2.497 6.81,5.093 10.101,7.784c3.754,3.07 7.405,6.265 10.941,9.583c6.835,6.414 13.242,13.284 19.129,20.579c6.721,8.329 12.76,17.211 17.974,26.558c5.991,10.74 10.885,22.093 14.501,33.849c2.245,7.301 3.997,14.755 5.229,22.293c1.079,6.605 1.76,13.275 2.039,19.962c0.377,9.052 0.021,18.135 -1.072,27.129c-0.998,8.222 -2.611,16.369 -4.814,24.353c-2.729,9.886 -6.358,19.518 -10.792,28.764c-4.527,9.439 -9.891,18.473 -15.956,27.003c-7.828,11.01 -16.823,21.177 -26.699,30.388c-8.537,7.962 -17.734,15.211 -27.428,21.712c-3.223,2.161 -6.501,4.24 -9.828,6.235c-23.367,14.011 -49.142,23.885 -75.773,29.555c-18.524,3.944 -37.47,5.859 -56.408,5.804c-20.11,-0.058 -40.217,-2.342 -59.804,-6.917c-26.285,-6.14 -51.646,-16.416 -74.544,-30.744c-3.386,-2.119 -6.718,-4.326 -9.988,-6.62c-3.625,-2.542 -7.174,-5.192 -10.64,-7.946c-4.827,-3.835 -9.486,-7.876 -13.967,-12.109c-0.505,0.308 -1.011,0.614 -1.518,0.918c-2.857,1.704 -5.755,3.337 -8.698,4.888c-2.969,1.564 -5.979,3.045 -9.026,4.451l-0.415,0.19l-0.216,0.099c-0.056,0.246 -0.114,0.492 -0.172,0.738c-0.172,0.71 -0.348,1.42 -0.534,2.127c-0.634,2.406 -1.348,4.791 -2.099,7.163c-0.809,2.557 -1.664,5.1 -2.54,7.636c-2.28,6.599 -4.697,13.15 -7.071,19.716c-0.434,1.201 -0.866,2.404 -1.297,3.606c-1.536,4.313 -3.058,8.634 -4.426,13.003c-0.484,1.543 -0.948,3.094 -1.367,4.656c-0.177,0.662 -0.346,1.326 -0.501,1.994c-0.155,0.674 -0.294,1.351 -0.396,2.036l-0.039,0.253c-0.063,0.365 -0.129,0.73 -0.209,1.092c-0.108,0.486 -0.234,0.969 -0.378,1.447c-0.528,1.759 -1.297,3.446 -2.28,4.997c-1.886,2.977 -4.556,5.438 -7.677,7.075c-2.2,1.154 -4.612,1.898 -7.081,2.18c-1.829,0.21 -3.686,0.169 -5.504,-0.124c-2.273,-0.365 -4.48,-1.122 -6.499,-2.227c-1.713,-0.939 -3.29,-2.127 -4.662,-3.517c-0.356,-0.361 -0.699,-0.735 -1.027,-1.121c-0.147,-0.172 -0.268,-0.324 -0.409,-0.498c-0.186,-0.237 -0.371,-0.474 -0.555,-0.713c-2.074,-2.715 -3.967,-5.563 -5.785,-8.455c-1.838,-2.926 -3.598,-5.901 -5.323,-8.895c-2.042,-3.545 -4.034,-7.118 -6.009,-10.7c-2.251,-4.083 -4.479,-8.178 -6.721,-12.265c-0.574,-1.043 -1.148,-2.085 -1.723,-3.127c-1.888,-3.406 -3.789,-6.806 -5.792,-10.146l-0.086,-0.143c-0.51,-0.012 -1.02,-0.026 -1.53,-0.041c-0.57,-0.017 -1.14,-0.037 -1.71,-0.058c-3.019,-0.12 -6.036,-0.297 -9.048,-0.544c-6.119,-0.503 -12.217,-1.278 -18.267,-2.329c-17.69,-3.074 -34.979,-8.509 -51.18,-16.264c-8.909,-4.264 -17.485,-9.225 -25.599,-14.857c-10.02,-6.955 -19.336,-14.937 -27.665,-23.85c-5.697,-6.096 -10.931,-12.624 -15.61,-19.533c-5.588,-8.251 -10.376,-17.049 -14.212,-26.249c-3.019,-7.239 -5.448,-14.723 -7.236,-22.361c-1.737,-7.422 -2.866,-14.987 -3.368,-22.593c-0.488,-7.371 -0.394,-14.781 0.283,-22.137c0.511,-5.562 1.359,-11.092 2.533,-16.552c2.279,-10.605 5.8,-20.934 10.415,-30.749c3.96,-8.418 8.72,-16.455 14.155,-24.005c4.785,-6.647 10.091,-12.917 15.827,-18.763c5.091,-5.188 10.522,-10.043 16.231,-14.541c12.234,-9.641 25.739,-17.641 40,-23.893c10.158,-4.452 20.701,-8.02 31.465,-10.688c17.087,-4.235 34.721,-6.197 52.32,-5.942c11.466,0.165 22.919,1.275 34.198,3.348c13.011,2.391 25.789,6.065 38.06,11.011c5.915,2.384 11.711,5.064 17.355,8.032c1.862,0.98 3.707,1.991 5.535,3.033c0.57,0.325 1.138,0.654 1.705,0.985c0.277,0.162 0.55,0.331 0.832,0.485c0.088,0.046 0.177,0.09 0.268,0.132c0.314,0.138 0.642,0.24 0.981,0.299c0.837,0.144 1.714,0.026 2.483,-0.334c0.367,-0.172 0.703,-0.4 1.006,-0.669c0.332,-0.301 0.663,-0.606 0.995,-0.908c1.99,-1.801 4.008,-3.571 6.062,-5.299c4.486,-3.774 9.125,-7.365 13.897,-10.77c2.965,-2.115 5.981,-4.158 9.044,-6.128c21.764,-13.997 45.849,-24.284 70.881,-30.775c14.349,-3.721 29.017,-6.198 43.787,-7.45c4.8,-0.406 9.611,-0.684 14.426,-0.833c2.304,-0.071 4.608,-0.11 6.913,-0.126c0.756,-0.004 1.513,-0.005 2.269,-0.004Zm-1.398,35.625c-1.783,0.008 -3.566,0.03 -5.349,0.076c-3.311,0.084 -6.62,0.237 -9.924,0.461c-9.897,0.67 -19.751,1.971 -29.479,3.915c-3.921,0.783 -7.822,1.671 -11.695,2.664c-3.221,0.825 -6.424,1.723 -9.604,2.694c-21.259,6.488 -41.576,16.239 -59.646,29.215c-3.837,2.755 -7.571,5.655 -11.186,8.696c-2.016,1.696 -3.99,3.439 -5.932,5.219l-0.271,0.246c-0.305,0.271 -0.611,0.54 -0.922,0.802c-0.722,0.609 -1.465,1.192 -2.229,1.748c-1.936,1.41 -3.999,2.645 -6.157,3.684c-3.885,1.87 -8.073,3.101 -12.352,3.633c-4.664,0.579 -9.425,0.326 -14.001,-0.748c-2.854,-0.67 -5.633,-1.657 -8.271,-2.938c-0.73,-0.354 -1.449,-0.731 -2.156,-1.129c-0.328,-0.185 -0.652,-0.376 -0.977,-0.567c-0.365,-0.214 -0.73,-0.427 -1.096,-0.638c-0.46,-0.264 -0.92,-0.526 -1.381,-0.786c-4.111,-2.304 -8.324,-4.421 -12.629,-6.337c-9.406,-4.186 -19.225,-7.431 -29.259,-9.729c-12.858,-2.946 -26.061,-4.335 -39.249,-4.226c-12.03,0.098 -24.05,1.448 -35.789,4.086c-17.846,4.011 -35.055,11.014 -50.441,20.934c-2.312,1.491 -4.583,3.046 -6.806,4.666c-2.414,1.76 -4.774,3.596 -7.071,5.506c-2.675,2.225 -5.266,4.55 -7.763,6.974c-5.063,4.916 -9.735,10.24 -13.913,15.928c-3.844,5.234 -7.267,10.777 -10.189,16.576c-2.651,5.261 -4.887,10.733 -6.653,16.353c-1.352,4.304 -2.43,8.693 -3.219,13.135c-1.495,8.412 -1.943,17.009 -1.346,25.532c0.474,6.786 1.619,13.523 3.404,20.087c1.412,5.193 3.223,10.276 5.397,15.198c1.784,4.041 3.811,7.974 6.056,11.778c1.884,3.191 3.921,6.291 6.095,9.292c1.824,2.516 3.745,4.962 5.753,7.335c1.692,2 3.449,3.947 5.261,5.84c1.742,1.818 3.536,3.586 5.379,5.302c12.793,11.912 27.862,21.286 44.004,27.942c13.344,5.502 27.436,9.151 41.751,10.959c5.094,0.643 10.216,1.054 15.347,1.237c2.62,0.093 5.242,0.122 7.864,0.101l0.264,0c0.674,0.008 1.347,0.036 2.019,0.098c1.332,0.123 2.653,0.36 3.944,0.708c2.233,0.602 4.376,1.538 6.336,2.767c1.696,1.064 3.254,2.345 4.625,3.805c0.69,0.734 1.323,1.517 1.927,2.323c0.373,0.497 0.737,0.999 1.093,1.508c1.105,1.576 2.142,3.198 3.149,4.838c1.107,1.801 2.178,3.625 3.232,5.458c1.155,2.009 2.289,4.03 3.414,6.056c2.224,4.004 4.413,8.026 6.611,12.044l0.253,0.462c1.269,-3.496 2.541,-6.989 3.793,-10.491c1.068,-2.99 2.122,-5.985 3.129,-8.996c0.828,-2.478 1.63,-4.966 2.342,-7.48c0.237,-0.836 0.464,-1.676 0.671,-2.52c0.211,-0.862 0.405,-1.729 0.535,-2.608l0.052,-0.336c0.074,-0.44 0.152,-0.879 0.245,-1.316c0.307,-1.443 0.73,-2.863 1.265,-4.239c0.894,-2.3 2.101,-4.479 3.577,-6.458c1.39,-1.862 3.017,-3.547 4.831,-5c1.262,-1.011 2.614,-1.91 4.034,-2.683c0.39,-0.211 0.784,-0.414 1.183,-0.606c0.36,-0.174 0.452,-0.213 0.814,-0.377c0.574,-0.249 1.148,-0.495 1.721,-0.746c2.269,-1.001 4.516,-2.052 6.735,-3.159c4.438,-2.216 8.766,-4.649 12.961,-7.295l0.298,-0.184c0.803,-0.483 1.62,-0.939 2.46,-1.355c1.857,-0.922 3.802,-1.665 5.801,-2.217c3.805,-1.05 7.796,-1.399 11.726,-1.028c3.813,0.36 7.558,1.397 11.013,3.053c2.282,1.094 4.435,2.455 6.403,4.047c0.547,0.442 1.079,0.902 1.596,1.379c0.501,0.461 0.985,0.94 1.477,1.411c0.276,0.262 0.552,0.524 0.828,0.785c1.395,1.309 2.806,2.599 4.241,3.864c2.902,2.559 5.886,5.023 8.945,7.392c17.834,13.807 38.141,24.32 59.509,31.47c3.432,1.149 6.893,2.212 10.378,3.188c3.947,1.107 7.925,2.102 11.928,2.988c16.163,3.579 32.714,5.358 49.265,5.406c17.405,0.051 34.82,-1.812 51.797,-5.663c25.125,-5.7 49.335,-15.771 70.717,-30.197c14.921,-10.067 28.456,-22.265 39.635,-36.393c1.567,-1.98 3.087,-3.997 4.557,-6.05c4.628,-6.465 8.76,-13.287 12.298,-20.409c3.84,-7.731 6.977,-15.815 9.303,-24.13c1.801,-6.436 3.116,-13.007 3.922,-19.642c0.84,-6.914 1.125,-13.894 0.862,-20.854c-0.223,-5.914 -0.848,-11.814 -1.868,-17.644c-0.925,-5.287 -2.175,-10.517 -3.734,-15.654c-2.846,-9.376 -6.723,-18.428 -11.465,-27.001c-4.201,-7.594 -9.081,-14.806 -14.508,-21.576c-4.833,-6.029 -10.101,-11.706 -15.719,-17.01c-5.006,-4.725 -10.293,-9.153 -15.805,-13.276c-18.227,-13.631 -38.893,-23.895 -60.577,-30.742c-3.355,-1.059 -6.735,-2.037 -10.137,-2.934c-3.829,-1.009 -7.685,-1.915 -11.562,-2.719c-9.936,-2.061 -20.01,-3.448 -30.13,-4.175c-3.526,-0.253 -7.058,-0.426 -10.592,-0.52c-1.679,-0.045 -3.358,-0.069 -5.037,-0.08c-0.646,-0.003 -1.291,-0.004 -1.936,-0.003Z" style="fill:#0097a3;fill-rule:nonzero;"/><path d="M276.752,308.273c5.797,-3.703 13.383,-2.907 18.286,1.918c38.575,37.288 95.517,60.891 158.99,60.891c116.071,0 210.306,-78.93 210.306,-176.15c0,-97.219 -94.235,-176.149 -210.306,-176.149c-61.577,0 -117.009,22.214 -155.485,57.588c-7.128,6.529 -17.686,7.631 -26.01,2.717c-26.058,-15.384 -57.578,-24.356 -91.511,-24.356c-89.79,0 -162.688,62.822 -162.688,140.2c0,77.379 72.898,140.201 162.688,140.201c0.593,0 1.185,-0.003 1.776,-0.009c1.728,-0.015 3.365,0.77 4.434,2.127c7.365,9.345 24.908,46.244 34.947,58.983c0.589,0.747 1.566,1.072 2.485,0.825c0.919,-0.246 1.603,-1.016 1.739,-1.957c2.078,-14.353 19.195,-52.897 21.26,-67.156c0.48,-3.318 2.66,-6.144 5.747,-7.453c8.199,-3.51 16.002,-7.607 23.342,-12.22Z" style="fill:#fffefb;"/><g><path d="M423.453,321.037c-3.932,-0.401 -7.603,2.018 -8.784,5.789c-1.126,3.576 -2.312,7.133 -3.559,10.668c-0.299,0.843 -0.199,1.777 0.271,2.538c0.47,0.761 1.26,1.268 2.148,1.378c0,0.001 0.001,0.001 0.001,0.001c11.445,1.42 22.966,2.221 34.497,2.428c0.845,0.014 1.611,-0.495 1.926,-1.28c0,0 0,0 0,0c1.869,-4.67 3.62,-9.388 5.253,-14.145c0.001,-0.001 0.001,-0.001 0.001,-0.001c0.463,-1.35 0.25,-2.841 -0.573,-4.006c-0.824,-1.166 -2.157,-1.865 -3.584,-1.879c-0.443,-0.005 -0.886,-0.01 -1.328,-0.016c-8.772,-0.12 -17.54,-0.607 -26.269,-1.475Z" style="fill:#faf3d2;stroke:#e9e9e9;stroke-width:1px;"/><path d="M475.239,331.65c-0.882,2.663 -0.363,5.591 1.382,7.789c1.744,2.197 4.479,3.367 7.273,3.112c2.866,-0.26 5.729,-0.557 8.588,-0.893c6.467,-0.761 12.912,-1.718 19.32,-2.878c2.907,-0.532 5.313,-2.566 6.322,-5.344c0.607,-1.669 1.198,-3.343 1.774,-5.022c0.128,-0.372 0.255,-0.744 0.381,-1.116c0.895,-2.632 0.321,-5.541 -1.506,-7.636c-1.827,-2.095 -4.631,-3.059 -7.36,-2.531c0,0 0,0 0,0c-10.204,1.976 -20.516,3.394 -30.871,4.282c0,0 0,0 0,0c-1.294,0.111 -2.389,1 -2.765,2.242c-0.812,2.676 -1.658,5.341 -2.538,7.995Z" style="fill:#faf3d2;stroke:#e9e9e9;stroke-width:1px;"/><path d="M355.829,305.893c-0.898,-0.328 -1.892,-0.26 -2.737,0.187c-0.844,0.447 -1.46,1.231 -1.694,2.158c-0.578,2.285 -1.179,4.565 -1.804,6.839c-0.25,0.907 -0.503,1.814 -0.76,2.719c-1.207,4.263 1.137,8.724 5.333,10.148c0.458,0.156 0.917,0.31 1.376,0.464c7.889,2.637 15.896,4.917 23.984,6.858c1.021,0.244 2.043,0.484 3.066,0.718c4.128,0.948 8.31,-1.357 9.713,-5.354c0.26,-0.738 0.517,-1.476 0.771,-2.216c0.271,-0.79 0.539,-1.582 0.804,-2.374c0.747,-2.229 0.517,-4.669 -0.634,-6.719c-1.151,-2.05 -3.115,-3.517 -5.406,-4.039c-1.113,-0.253 -2.224,-0.512 -3.334,-0.778c-9.71,-2.329 -19.296,-5.186 -28.677,-8.611c-0.001,0 -0.001,0 -0.001,0Z" style="fill:#faf3d2;stroke:#e9e9e9;stroke-width:1px;"/><path d="M544.29,317.445c-0.839,2.981 0.047,6.182 2.299,8.307c2.253,2.126 5.5,2.824 8.427,1.813c5.369,-1.859 10.681,-3.88 15.921,-6.076c3.218,-1.348 6.409,-2.761 9.569,-4.243c2.035,-0.958 3.596,-2.7 4.327,-4.828c2.076,-6.1 3.924,-12.275 5.555,-18.507c0.31,-1.196 -0.125,-2.462 -1.106,-3.214c-0.98,-0.752 -2.315,-0.846 -3.391,-0.237c-0.001,0 -0.002,0 -0.003,0.001c-9.927,5.621 -20.323,10.403 -30.99,14.439c-1.295,0.49 -2.593,0.968 -3.896,1.436c-2.573,0.925 -4.528,3.054 -5.229,5.697c-0.27,1.016 -0.544,2.031 -0.822,3.044c-0.218,0.79 -0.438,1.579 -0.661,2.368Z" style="fill:#faf3d2;stroke:#e9e9e9;stroke-width:1px;"/><path d="M311.244,283.797c-0.378,-0.249 -0.862,-0.272 -1.264,-0.061c-0.401,0.211 -0.655,0.624 -0.664,1.077c-0.007,0.327 -0.013,0.654 -0.02,0.981c-0.113,5.526 -0.247,11.051 -0.411,16.575c-0.093,3.102 1.547,5.998 4.255,7.513c1.928,1.069 3.871,2.113 5.828,3.128c2.236,1.16 4.878,1.245 7.183,0.229c2.306,-1.016 4.027,-3.022 4.68,-5.455c0.742,-2.761 1.446,-5.532 2.113,-8.312c0.413,-1.73 -0.416,-3.518 -2.005,-4.319c0,0 0,-0.001 0,-0.001c-6.768,-3.416 -13.358,-7.191 -19.694,-11.355c0,0 0,0 -0.001,0Z" style="fill:#faf3d2;stroke:#e9e9e9;stroke-width:1px;"/><path d="M185.996,313.596c0.371,1.278 1.567,2.136 2.896,2.076c0,0 0,0 0,0c1.608,-0.071 3.214,-0.165 4.82,-0.273c1.887,-0.127 3.774,-0.274 5.658,-0.439c2.556,-0.224 5.109,-0.48 7.657,-0.772c2.427,-0.279 4.849,-0.589 7.266,-0.942c1.34,-0.196 2.679,-0.407 4.015,-0.626c1.662,-0.273 3.322,-0.56 4.98,-0.86c0,0 0,0 0,0c0.623,-0.113 1.172,-0.48 1.514,-1.014c0.342,-0.533 0.447,-1.185 0.289,-1.798c-1.194,-4.678 -2.29,-9.381 -3.29,-14.104c-0.507,-2.411 -2.829,-3.99 -5.257,-3.576c0,0 0,0 -0.001,0c-1.884,0.321 -3.771,0.626 -5.662,0.899c-2.091,0.302 -4.187,0.568 -6.286,0.809c-2.359,0.271 -4.721,0.508 -7.087,0.715c-2.426,0.212 -4.856,0.394 -7.288,0.535c-1.027,0.059 -2.055,0.111 -3.083,0.151c-0.776,0.03 -1.552,0.054 -2.328,0.059c-0.002,0 -0.005,0 -0.008,-0.001c0,0 0,0 0,0c-0.002,-0.001 -0.005,-0.001 -0.007,-0.002c-0.287,-0.057 -0.365,-0.076 -0.653,-0.121c-0.285,-0.046 -0.572,-0.079 -0.86,-0.103c-0.637,-0.053 -1.278,-0.053 -1.916,-0.006c0,0 0,0 0,0c-0.078,0.006 -0.15,0.045 -0.197,0.108c-0.047,0.063 -0.064,0.144 -0.047,0.22c1.434,6.402 3.057,12.762 4.875,19.065Z" style="fill:#faf3d2;stroke:#e9e9e9;stroke-width:1px;"/><path d="M132.15,289.007c-2.569,-0.577 -5.255,0.21 -7.107,2.083c-1.852,1.872 -2.609,4.567 -2.003,7.13c0.5,2.109 1.019,4.214 1.558,6.314c0.793,3.059 3.25,5.406 6.343,6.056c4.225,0.88 8.474,1.643 12.741,2.291c3.352,0.509 6.715,0.947 10.086,1.316c2.691,0.295 5.358,-0.737 7.148,-2.768c1.79,-2.031 2.48,-4.806 1.849,-7.439c-0.377,-1.581 -0.744,-3.164 -1.101,-4.749c-0.774,-3.462 -3.657,-6.052 -7.182,-6.452c-7.503,-0.872 -14.961,-2.128 -22.331,-3.782c0,0 0,0 -0.001,0Z" style="fill:#faf3d2;stroke:#e9e9e9;stroke-width:1px;"/><path d="M482.986,304.503c-0.19,0.784 0.005,1.612 0.526,2.228c0.52,0.616 1.304,0.947 2.109,0.891c0,0 0.001,0 0.001,0c10.328,-0.728 20.631,-1.82 30.877,-3.304c1.854,-0.268 3.707,-0.549 5.557,-0.844c3.337,-0.531 6.021,-3.027 6.793,-6.316c0.726,-3.127 1.408,-6.264 2.044,-9.41c0.544,-2.689 -0.274,-5.474 -2.185,-7.442c-1.911,-1.969 -4.669,-2.868 -7.373,-2.405c-9.921,1.672 -19.911,2.934 -29.932,3.827c0,0 0,0 0,0c-2.216,0.197 -4.028,1.849 -4.43,4.037c-1.162,6.28 -2.489,12.529 -3.987,18.738Z" style="fill:#faf3d2;stroke:#e9e9e9;stroke-width:1px;"/><path d="M244.128,302.583c0.298,1.183 1.06,2.196 2.113,2.811c1.053,0.616 2.309,0.782 3.486,0.461c0,0 0,0 0,0c1.526,-0.416 3.048,-0.849 4.558,-1.322c0.539,-0.168 1.075,-0.344 1.607,-0.531c0.467,-0.164 0.93,-0.338 1.386,-0.531c0.218,-0.092 0.435,-0.189 0.648,-0.291c0.059,-0.029 0.118,-0.058 0.176,-0.087c0.065,-0.032 0.129,-0.064 0.192,-0.098c0.243,-0.128 0.484,-0.258 0.727,-0.385c0.007,-0.003 0.014,-0.007 0.021,-0.011c2.644,-1.364 5.429,-2.43 8.218,-3.457l0.007,-0.002c1.014,-0.372 1.7,-1.325 1.729,-2.405c0.004,-0.176 0.009,-0.351 0.014,-0.526c0.15,-5.688 0.272,-11.376 0.374,-17.065c0,0 0,0 0,0c0.014,-0.803 -0.37,-1.56 -1.026,-2.023c-0.656,-0.462 -1.498,-0.57 -2.249,-0.288c-0.211,0.08 -0.423,0.159 -0.634,0.238c-1.722,0.639 -3.452,1.254 -5.178,1.884c-0.003,0.001 -0.006,0.002 -0.01,0.004c-0.387,0.142 -0.775,0.284 -1.163,0.428c-0.005,0.002 -0.01,0.004 -0.015,0.006c-1.844,0.687 -3.679,1.397 -5.487,2.176c-1.488,0.64 -2.956,1.327 -4.395,2.07c-0.309,0.161 -0.631,0.296 -0.963,0.404c0,0 0,0 0,0c-0.003,0.001 -0.006,0.002 -0.009,0.003c-1.37,0.442 -2.757,0.832 -4.145,1.211c0,0 -0.001,0 -0.001,0c-2.052,0.56 -3.315,2.62 -2.882,4.702c0.886,4.227 1.852,8.436 2.901,12.624Z" style="fill:#faf3d2;stroke:#e9e9e9;stroke-width:1px;"/><path d="M399.985,305.449c9.525,1.179 20.287,2.015 20.287,2.015c10.976,0.828 21.984,1.242 32.991,1.26c0.521,0.001 1.042,0.001 1.563,0c3.809,-0.004 7.128,-2.594 8.059,-6.287c0.743,-2.98 1.445,-5.969 2.107,-8.968c0.542,-2.47 -0.068,-5.053 -1.659,-7.019c-1.591,-1.966 -3.99,-3.101 -6.519,-3.085c-3.328,0.02 -6.655,0.002 -9.982,-0.053c-7.099,-0.119 -14.197,-0.412 -21.282,-0.888c-0.069,-0.005 -0.137,-0.01 -0.206,-0.017l-19.794,-1.827c-0.069,-0.008 -0.139,-0.015 -0.208,-0.022c-1.84,-0.216 -3.679,-0.446 -5.516,-0.689c-7.983,-1.057 -15.933,-2.362 -23.83,-3.939c-3.862,-0.771 -7.712,-1.607 -11.546,-2.512c-1.504,-0.357 -3.088,-0.072 -4.374,0.785c-1.286,0.858 -2.157,2.211 -2.406,3.737c0,0 0,0 0,0c-0.623,3.825 -1.306,7.64 -2.05,11.443c-0.842,4.288 1.88,8.469 6.142,9.435c0,0.001 0,0.001 0.001,0.001c9.63,2.182 19.348,3.969 29.118,5.401c3.03,0.444 6.065,0.854 9.104,1.229Z" style="fill:#faf3d2;stroke:#e9e9e9;stroke-width:1px;"/><path d="M188.452,295.926c0.051,0.029 0.101,0.061 0.149,0.094c0.061,0.043 0.14,0.098 0.14,0.098c0,0 -0.002,-0.001 -0.006,-0.004c-0.073,-0.05 -0.147,-0.099 -0.222,-0.146c-0.026,-0.016 -0.053,-0.033 -0.076,-0.048c-0.001,0 -0.001,-0.001 0,-0.001c0,-0.001 0.001,-0.001 0.001,-0.001c0.005,0.003 0.01,0.006 0.014,0.008Z" style="fill:#faf3d2;stroke:#e9e9e9;stroke-width:1px;"/><path d="M179.706,287.903c0.022,0.107 0.116,0.184 0.225,0.184c0,0 0,0 0,0c0.182,0.001 0.364,0.001 0.546,0.002c0.199,0 0.652,0.003 0.907,-0.004c0.097,-0.002 0.194,-0.006 0.292,-0.01c0.017,-0.001 0.035,-0.001 0.053,-0.002c0,0 0,0 0,0c0.04,-0.003 0.081,-0.002 0.121,0.002l0.162,0.015c0.197,0.015 0.204,0.016 0.386,0.029c0.032,0.002 0.064,0.004 0.096,0.005c0.986,0.055 1.975,0.056 2.963,0.045c1.124,-0.011 2.249,-0.041 3.373,-0.078c3.255,-0.106 6.509,-0.273 9.76,-0.476c2.762,-0.172 5.523,-0.373 8.281,-0.604c2.411,-0.202 4.82,-0.428 7.226,-0.685c0,0 0,0 0.001,0c1.518,-0.162 2.902,-0.944 3.823,-2.162c0.921,-1.217 1.299,-2.761 1.043,-4.266c-0.813,-4.82 -1.529,-9.657 -2.152,-14.506c-0.337,-2.659 -2.741,-4.56 -5.407,-4.276c0,0 0,0 0,0c-4.375,0.467 -8.762,0.826 -13.152,1.115c-2.649,0.174 -5.3,0.322 -7.952,0.434c-1.037,0.043 -2.073,0.082 -3.11,0.111c-0.832,0.023 -1.663,0.041 -2.495,0.045c-0.004,0 -0.008,0 -0.013,0c0,0 0,0 0,0c-0.02,0 -0.041,-0.002 -0.061,-0.006c-0.002,0 -0.004,0 -0.006,-0.001c-0.063,-0.01 -0.125,-0.02 -0.188,-0.03c-0.041,-0.006 -0.088,-0.013 -0.127,-0.018c-0.069,-0.01 -0.138,-0.02 -0.208,-0.028c-0.383,-0.046 -0.766,-0.083 -1.152,-0.1c-0.492,-0.022 -0.984,-0.017 -1.476,0.009c-0.302,0.016 -0.603,0.043 -0.904,0.075c-0.005,0 -0.01,0.001 -0.015,0.001c-0.01,0.001 -0.028,0.003 -0.047,0.005c-0.037,0.005 -0.075,0.007 -0.113,0.007c0,0 -0.001,0 -0.001,0c-1.221,-0.004 -2.384,0.524 -3.186,1.444c-0.803,0.921 -1.166,2.144 -0.997,3.354c0.969,6.822 2.134,13.617 3.504,20.37Z" style="fill:#faf3d2;stroke:#e9e9e9;stroke-width:1px;"/><path d="M118.127,218.355c-1.145,-0.141 -2.294,0.222 -3.15,0.994c-0.856,0.773 -1.334,1.879 -1.31,3.032c0,0 0,0.001 0,0.001c0.098,4.76 0.282,9.518 0.554,14.27c0.233,4.071 0.531,8.139 0.896,12.2c0.988,11.01 2.465,21.982 4.465,32.858c0.078,0.424 0.409,0.757 0.832,0.837c0.001,0 0.001,0 0.001,0c6.594,1.253 13.23,2.279 19.892,3.095c2.679,0.328 5.362,0.623 8.048,0.883c2.567,0.251 5.105,-0.703 6.872,-2.583c1.766,-1.88 2.561,-4.473 2.151,-7.02c-0.463,-2.887 -0.891,-5.779 -1.285,-8.677c-0.513,-3.806 -3.564,-6.767 -7.384,-7.165c-2.087,-0.218 -4.173,-0.458 -6.256,-0.72c-8.591,-1.08 -17.137,-2.541 -25.588,-4.432c-0.001,-0.001 -0.002,-0.001 -0.002,-0.001c-0.024,-0.006 -0.038,-0.03 -0.034,-0.053c0.005,-0.024 0.027,-0.04 0.051,-0.038c7.033,0.819 14.085,1.48 21.145,2.006c2.387,0.177 4.775,0.339 7.164,0.485c2.417,0.149 4.779,-0.762 6.469,-2.495c1.691,-1.734 2.542,-4.117 2.333,-6.53c-0.345,-3.983 -0.628,-7.971 -0.852,-11.962c-0.272,-4.845 -0.457,-9.695 -0.557,-14.546c0,-0.001 0,-0.001 0,-0.001c-0.017,-0.83 -0.671,-1.506 -1.499,-1.551c-0.265,-0.014 -0.53,-0.029 -0.795,-0.044c-8.962,-0.5 -17.911,-1.227 -26.832,-2.218c-1.777,-0.198 -3.554,-0.406 -5.329,-0.625Z" style="fill:#faf3d2;stroke:#e9e9e9;stroke-width:1px;"/><path d="M262.755,174.292c1.718,0.195 3.437,-0.358 4.719,-1.518c1.282,-1.16 2.004,-2.816 1.981,-4.545c-0.085,-6.235 -0.183,-12.47 -0.298,-18.705c-0.154,-8.333 -0.335,-16.665 -0.554,-24.996c-0.184,-7.016 -0.395,-14.031 -0.646,-21.045c-0.141,-3.963 -0.295,-7.926 -0.469,-11.887c-0.039,-0.873 -0.588,-1.641 -1.401,-1.96c0,0 0,0 0,0c-1.214,-0.476 -2.432,-0.94 -3.654,-1.392c-2.041,-0.758 -4.303,-0.65 -6.262,0.3c-1.959,0.949 -3.445,2.658 -4.115,4.729c-0.001,0 -0.001,0 -0.001,0.001c-0.96,2.97 -1.876,5.954 -2.752,8.95c-0.595,2.041 0.511,4.19 2.518,4.891c0,0.001 0,0.001 0,0.001c3.701,1.293 7.362,2.702 10.971,4.231c1.179,0.499 2.353,1.012 3.52,1.537c0.001,0.001 0.002,0.001 0.003,0.001c0.072,0.034 0.105,0.118 0.077,0.192c-0.028,0.074 -0.108,0.115 -0.185,0.093c-0.287,-0.083 -0.575,-0.166 -0.863,-0.248c-4.622,-1.317 -9.281,-2.503 -13.968,-3.567c-2.153,-0.485 -4.304,0.825 -4.861,2.961c0,0 -0.001,0.001 -0.001,0.001c-1.615,6.198 -3.07,12.438 -4.371,18.709c-0.247,1.195 0.513,2.366 1.705,2.627c0.001,0 0.002,0.001 0.004,0.001c0.058,0.015 0.094,0.072 0.083,0.131c-0.011,0.059 -0.065,0.099 -0.125,0.093c0,0 -0.001,0 -0.001,0c-1.244,-0.142 -2.387,0.696 -2.627,1.925c-0.399,2.048 -0.782,4.099 -1.149,6.153c-1.204,6.736 -2.238,13.503 -3.103,20.291c-0.277,2.191 0.33,4.402 1.685,6.146c1.355,1.743 3.348,2.877 5.54,3.15c2.201,0.275 4.4,0.566 6.597,0.874c3.964,0.557 7.92,1.173 11.864,1.855c0.046,0.008 0.092,0.015 0.137,0.02c0.001,0 0.001,0 0.002,0Z" style="fill:#faf3d2;stroke:#e9e9e9;stroke-width:1px;"/><path d="M438.83,233.634c-4.454,-0.091 -8.189,3.342 -8.474,7.787c-0.447,6.755 -1.066,13.497 -1.862,20.219c-0.282,2.331 0.434,4.672 1.971,6.446c1.537,1.775 3.752,2.817 6.099,2.87c6.052,0.135 12.106,0.198 18.16,0.193c2.428,-0.002 4.856,-0.015 7.283,-0.039c4.141,-0.042 7.621,-3.122 8.166,-7.227c0.656,-4.996 1.208,-10.006 1.658,-15.023c0.365,-4.061 0.663,-8.128 0.896,-12.199c0,-0.001 0,-0.001 0,-0.001c0.046,-0.8 -0.245,-1.583 -0.801,-2.16c-0.556,-0.576 -1.328,-0.895 -2.129,-0.877c-5.981,0.124 -11.963,0.177 -17.945,0.16c-4.341,-0.013 -8.682,-0.062 -13.022,-0.149Z" style="fill:#faf3d2;stroke:#e9e9e9;stroke-width:1px;"/><path d="M490.358,263.833c-0.206,1.62 0.319,3.247 1.431,4.442c1.112,1.195 2.697,1.835 4.328,1.747c0,0.001 0,0.001 0,0.001c10.608,-0.576 21.206,-1.376 31.777,-2.433c3.868,-0.392 6.949,-3.41 7.421,-7.269c0.462,-3.814 0.864,-7.635 1.208,-11.461c0.364,-4.061 0.663,-8.128 0.896,-12.199c0,-0.001 0,-0.001 0,-0.001c0.11,-1.921 -0.631,-3.793 -2.027,-5.118c-1.395,-1.324 -3.302,-1.968 -5.215,-1.758c-1.326,0.145 -2.652,0.286 -3.979,0.423c-8.598,0.887 -17.214,1.594 -25.84,2.14c-4.193,0.26 -7.534,3.605 -7.79,7.799c-0.498,7.916 -1.232,15.816 -2.21,23.687Z" style="fill:#faf3d2;stroke:#e9e9e9;stroke-width:1px;"/><path d="M371.411,229.038c-2.289,-0.278 -4.59,0.406 -6.356,1.888c-1.765,1.483 -2.836,3.631 -2.958,5.934c-0.369,6.748 -0.909,13.488 -1.624,20.208c-0.494,4.533 2.753,8.618 7.28,9.161c3.454,0.415 6.912,0.798 10.372,1.155c7.097,0.731 14.205,1.346 21.321,1.855c4.405,0.311 8.285,-2.872 8.841,-7.252c0.55,-4.368 1.021,-8.744 1.414,-13.127c0.365,-4.061 0.663,-8.128 0.896,-12.199c0,-0.001 0,-0.001 0,-0.001c0.13,-2.276 -1.601,-4.231 -3.877,-4.376c-7.196,-0.466 -14.385,-1.044 -21.562,-1.746c-4.588,-0.448 -9.171,-0.946 -13.747,-1.5Z" style="fill:#faf3d2;stroke:#e9e9e9;stroke-width:1px;"/><path d="M188.037,263.858c0.066,0.028 0.132,0.058 0.196,0.091c0.069,0.035 0.15,0.076 0.15,0.076c0,0 0,0 0,0c-0.086,-0.043 -0.172,-0.084 -0.259,-0.124c-0.031,-0.014 -0.062,-0.029 -0.088,-0.041c-0.001,0 -0.001,-0.001 -0.001,-0.002c0,0 0.001,-0.001 0.002,0c0,0 0,0 0,0Z" style="fill:#faf3d2;stroke:#e9e9e9;stroke-width:1px;"/><path d="M187.876,222.741c0.065,0.017 0.13,0.035 0.194,0.055c0.014,0.005 0.028,0.009 0.041,0.013c0,0 0,0.001 0,0.001c0,0 0,0.001 -0.001,0.001c-0.061,-0.018 -0.175,-0.05 -0.261,-0.075c-0.001,0 -0.001,-0.001 -0.001,-0.002c0,0 0.001,-0.001 0.001,0c0.009,0.002 0.018,0.004 0.027,0.007Z" style="fill:#faf3d2;stroke:#e9e9e9;stroke-width:1px;"/><path d="M186.803,222.467c0.05,0.009 0.1,0.02 0.149,0.033c0.018,0.004 0.038,0.01 0.059,0.015c0.001,0 0.002,0.001 0.001,0.002c0,0.001 -0.001,0.002 -0.002,0.002c-0.073,-0.018 -0.15,-0.036 -0.195,-0.047c-0.026,-0.006 -0.052,-0.012 -0.078,-0.017c-0.013,-0.003 -0.026,-0.006 -0.026,-0.006c0.031,0.006 0.062,0.012 0.092,0.018Z" style="fill:#faf3d2;stroke:#e9e9e9;stroke-width:1px;"/><path d="M471.467,174.982c-0.204,-2.113 -1.975,-3.728 -4.098,-3.735c-3.538,-0.012 -7.076,-0.019 -10.614,-0.023c-0.001,0 -0.003,0 -0.005,0c-1.389,0 -2.778,-0.001 -4.167,-0.001c-0.001,0 -0.002,0 -0.003,0c-4.81,0.003 -9.619,0.014 -14.428,0.034c-2.315,0.01 -4.521,0.984 -6.089,2.687c-1.567,1.704 -2.354,3.983 -2.172,6.291c0.13,1.621 0.25,3.242 0.361,4.864c0.703,10.297 1.039,20.62 0.995,30.941c-0.003,0.61 -0.007,1.22 -0.012,1.83c-0.002,0.187 0.071,0.366 0.201,0.499c0.131,0.132 0.309,0.208 0.496,0.209c0,0 0,0 0,0c11.878,0.069 23.757,0.082 35.636,0.04c0,0 0,0 0,0c3.21,-0.012 5.804,-2.622 5.794,-5.832c-0.013,-3.479 -0.07,-6.959 -0.173,-10.437c-0.269,-9.138 -0.846,-18.266 -1.722,-27.366c0,0 0,-0.001 0,-0.001Z" style="fill:#faf3d2;stroke:#e9e9e9;stroke-width:1px;"/><path d="M409.337,174.982c-0.19,-1.973 -1.861,-3.472 -3.844,-3.446c-9.371,0.122 -18.742,0.283 -28.112,0.487c-2.619,0.057 -5.238,0.117 -7.857,0.181c-2.282,0.055 -4.441,1.046 -5.972,2.739c-1.53,1.694 -2.298,3.942 -2.123,6.218c0.102,1.312 0.198,2.625 0.288,3.938c0.703,10.297 1.039,20.62 0.995,30.941c0,0 0,0 0,0.001c-0.004,0.803 0.635,1.463 1.439,1.484c9.454,0.248 18.909,0.449 28.364,0.609c3.42,0.058 6.84,0.111 10.26,0.158c2.243,0.031 4.403,-0.844 5.991,-2.428c1.589,-1.583 2.47,-3.741 2.446,-5.984c-0.028,-2.51 -0.079,-5.021 -0.153,-7.531c-0.269,-9.138 -0.846,-18.266 -1.722,-27.366c0,0 0,-0.001 0,-0.001Z" style="fill:#faf3d2;stroke:#e9e9e9;stroke-width:1px;"/><path d="M565.429,172.992c-2.363,-0.082 -4.65,0.847 -6.288,2.553c-1.638,1.705 -2.473,4.028 -2.296,6.386c0.08,1.056 0.156,2.112 0.228,3.168c0.704,10.297 1.04,20.62 0.995,30.941c0,0 0,0 0,0c-0.001,0.282 0.113,0.552 0.315,0.749c0.201,0.196 0.475,0.302 0.756,0.293c7.063,-0.226 14.124,-0.483 21.185,-0.776c4.766,-0.199 9.531,-0.414 14.296,-0.651c3.146,-0.157 5.604,-2.775 5.564,-5.925c0,0 0,0 0,-0.001c-0.1,-7.905 -0.464,-15.807 -1.081,-23.688c-0.127,-1.623 -0.265,-3.245 -0.414,-4.866c-0.357,-3.901 -3.534,-6.943 -7.448,-7.129c0,-0.001 0,-0.001 0,-0.001c-8.602,-0.409 -17.206,-0.756 -25.812,-1.053Z" style="fill:#faf3d2;stroke:#e9e9e9;stroke-width:1px;"/><path d="M309.832,207.583c0.017,4.431 3.503,8.071 7.928,8.281c3.73,0.176 7.46,0.339 11.191,0.492c1.687,0.069 3.374,0.136 5.06,0.201c2.284,0.089 4.504,-0.766 6.138,-2.364c1.635,-1.597 2.54,-3.796 2.505,-6.081c-0.03,-1.921 -0.073,-3.842 -0.13,-5.763c-0.269,-9.138 -0.846,-18.266 -1.722,-27.366c0,0 0,0 0,0c-0.104,-1.079 -1.03,-1.89 -2.113,-1.851c-6.817,0.248 -13.634,0.527 -20.448,0.846c-0.748,0.035 -1.497,0.071 -2.245,0.107c-3.586,0.172 -6.394,3.148 -6.356,6.738c0,0 0,0 0,0c0.092,8.92 0.157,17.84 0.192,26.76Z" style="fill:#faf3d2;stroke:#e9e9e9;stroke-width:1px;"/><path d="M172.515,216.137c0,0.058 0.047,0.105 0.105,0.105c0.001,0 0.001,0 0.001,0c2.097,0.006 4.194,0.01 6.291,0.011c0.755,0.001 1.509,0.003 2.264,0c0.014,0 0.028,0 0.041,0c0.296,-0.002 0.592,-0.007 0.887,-0.01c0.159,-0.002 0.158,-0.002 0.317,0.005l0.195,0.005c0.032,0.001 0.065,0.002 0.098,0.002c0.193,0.003 0.386,0.005 0.579,0.006c0.009,0 0.019,0 0.029,0c0.671,0.003 1.341,0.003 2.012,0.002c0.002,0 0.004,0 0.007,0c4.396,-0.007 8.792,-0.034 13.187,-0.066c4.559,-0.034 9.118,-0.076 13.676,-0.131c0,0 0.216,-0.003 0.477,-0.006c0.506,-0.006 0.913,-0.419 0.912,-0.926c0,0 0,0 0,-0.001c-0.01,-4.461 0.052,-8.922 0.183,-13.382c0.188,-6.366 0.518,-12.729 0.987,-19.081c0.173,-2.295 -0.613,-4.559 -2.17,-6.254c-1.557,-1.695 -3.747,-2.669 -6.048,-2.69c-9.912,-0.091 -19.824,-0.127 -29.736,-0.112c0,0 -0.426,0.001 -0.908,0.002c-0.773,0.001 -1.419,0.589 -1.493,1.358c0,0 0,0.001 0,0.001c-0.877,9.1 -1.453,18.228 -1.722,27.366c-0.136,4.597 -0.193,9.196 -0.171,13.796Z" style="fill:#faf3d2;stroke:#e9e9e9;stroke-width:1px;"/><path d="M113.645,207.15c-0.082,4.579 3.551,8.365 8.13,8.469c7.446,0.167 14.893,0.297 22.341,0.395c4.587,0.059 8.356,-3.605 8.427,-8.191c0.026,-1.729 0.063,-3.457 0.11,-5.185c0.182,-6.626 0.517,-13.248 1.005,-19.859c0.174,-2.326 -0.636,-4.62 -2.234,-6.32c-1.598,-1.7 -3.836,-2.651 -6.169,-2.622c-4.268,0.053 -8.535,0.119 -12.803,0.195c-5.443,0.097 -10.887,0.211 -16.33,0.346c-0.334,0.008 -0.609,0.264 -0.641,0.597c0,0 0,0 0,0c-0.877,9.1 -1.453,18.228 -1.722,27.366c-0.048,1.603 -0.085,3.206 -0.114,4.809Z" style="fill:#faf3d2;stroke:#e9e9e9;stroke-width:1px;"/><path d="M116.569,164.946c-0.196,1.647 0.372,3.294 1.541,4.47c1.169,1.177 2.812,1.754 4.461,1.567c0,0.001 0,0.001 0,0.001c5.752,-0.65 11.517,-1.19 17.289,-1.63c2.71,-0.207 5.421,-0.391 8.134,-0.555c4.01,-0.241 7.275,-3.314 7.76,-7.302c0.984,-7.984 2.19,-15.94 3.62,-23.856c0,0 0,-0.001 0,-0.001c0.302,-1.669 -0.173,-3.385 -1.291,-4.661c-1.117,-1.276 -2.755,-1.973 -4.449,-1.895c-2.153,0.1 -4.305,0.211 -6.457,0.336c-6.46,0.372 -12.914,0.855 -19.356,1.461c-3.702,0.352 -6.721,3.119 -7.395,6.776c-0.142,0.766 -0.281,1.532 -0.418,2.299c-1.363,7.629 -2.509,15.296 -3.439,22.99Z" style="fill:#faf3d2;stroke:#e9e9e9;stroke-width:1px;"/><path d="M188.073,130.498c-4.031,-0.046 -7.515,2.803 -8.27,6.763c-0.298,1.563 -0.588,3.128 -0.867,4.695c-1.309,7.324 -2.418,14.683 -3.327,22.068c-0.117,0.966 0.185,1.935 0.832,2.662c0.646,0.727 1.573,1.142 2.546,1.138c0,0 0.001,0 0.001,0c9.743,-0.034 19.488,0.177 29.219,0.656c4.362,0.223 8.153,-2.964 8.683,-7.299c0.977,-7.878 2.171,-15.728 3.582,-23.54c0,0 0,-0.001 0,-0.001c0.267,-1.477 -0.111,-2.998 -1.039,-4.179c-0.927,-1.18 -2.315,-1.907 -3.814,-1.997c-6.12,-0.362 -12.246,-0.622 -18.374,-0.788c-3.057,-0.083 -6.114,-0.142 -9.172,-0.178Z" style="fill:#faf3d2;stroke:#e9e9e9;stroke-width:1px;"/><path d="M401.976,127.623c-0.887,-4.066 -4.642,-6.851 -8.79,-6.52c-5.85,0.469 -11.693,1.014 -17.528,1.637c-4.461,0.476 -8.918,0.999 -13.368,1.572c-2.272,0.294 -4.323,1.512 -5.668,3.366c-1.345,1.855 -1.866,4.182 -1.44,6.434c0.023,0.126 0.047,0.252 0.071,0.378c1.518,8.052 2.802,16.147 3.857,24.273c0,0 0,0 0,0.001c0.124,0.956 0.624,1.822 1.39,2.408c0.766,0.585 1.733,0.841 2.688,0.71c7.53,-1.024 15.081,-1.89 22.644,-2.621c4.171,-0.403 8.345,-0.765 12.522,-1.087c2.322,-0.179 4.463,-1.322 5.902,-3.152c1.44,-1.831 2.047,-4.18 1.674,-6.479c-0.315,-1.943 -0.643,-3.883 -0.986,-5.822c-0.893,-5.05 -1.881,-10.085 -2.968,-15.098Z" style="fill:#faf3d2;stroke:#e9e9e9;stroke-width:1px;"/><path d="M493.548,119.706c-2.562,-0.128 -5.04,0.934 -6.715,2.876c-1.675,1.943 -2.36,4.55 -1.857,7.066c0.323,1.612 0.637,3.226 0.942,4.842c1.237,6.563 2.319,13.155 3.248,19.769c0.214,1.54 1.492,2.711 3.045,2.791c0,0.001 0,0.001 0,0.001c11.933,0.615 23.851,1.529 35.734,2.789c0,0 0,0 0.001,0c1.586,0.169 3.16,-0.406 4.264,-1.557c1.104,-1.15 1.615,-2.747 1.382,-4.324c-0.557,-3.754 -1.165,-7.5 -1.826,-11.238c-0.859,-4.858 -1.805,-9.7 -2.844,-14.524c-0.77,-3.556 -3.762,-6.199 -7.386,-6.526c-0.294,-0.027 -0.588,-0.053 -0.882,-0.079c-9.022,-0.802 -18.06,-1.427 -27.106,-1.886Z" style="fill:#faf3d2;stroke:#e9e9e9;stroke-width:1px;"/><path d="M463.279,123.895c-0.691,-3.018 -3.371,-5.162 -6.467,-5.174c-0.001,-0.001 -0.001,-0.001 -0.001,-0.001c-0.001,0 -0.003,0 -0.004,0c-1.171,-0.003 -2.343,-0.005 -3.514,-0.004c-0.002,0 -0.005,0 -0.007,0c-4.154,0.005 -8.308,0.04 -12.462,0.109c-3.398,0.056 -6.797,0.134 -10.194,0.235c-2.452,0.072 -4.746,1.223 -6.271,3.143c-1.525,1.921 -2.125,4.416 -1.64,6.82c0.369,1.82 0.725,3.642 1.069,5.467c0.924,4.905 1.762,9.827 2.515,14.761c0.628,4.151 4.25,7.183 8.446,7.072c6.646,-0.169 13.295,-0.25 19.943,-0.244c1.584,0.001 3.168,0.008 4.752,0.019c2.458,0.016 4.798,-1.054 6.391,-2.926c1.594,-1.871 2.279,-4.351 1.872,-6.775c-0.206,-1.226 -0.417,-2.451 -0.633,-3.676c-1.114,-6.304 -2.377,-12.583 -3.795,-18.826Z" style="fill:#faf3d2;stroke:#e9e9e9;stroke-width:1px;"/><path d="M543.885,90.508c-0.923,-0.202 -1.884,0.1 -2.526,0.793c-0.642,0.693 -0.869,1.675 -0.597,2.579c0,0.001 0,0.001 0.001,0.002c1.988,6.609 3.787,13.274 5.412,19.982c0,0 0,0 0,0c0.505,2.086 2.119,3.723 4.198,4.258c5.811,1.504 11.579,3.174 17.287,5.03c6.916,2.247 13.747,4.764 20.442,7.604c0,0 0,0 0.001,0c0.499,0.212 1.075,0.124 1.489,-0.227c0.413,-0.351 0.593,-0.905 0.465,-1.433c-0.97,-3.967 -2.014,-7.916 -3.136,-11.843c-1.105,-3.865 -2.287,-7.709 -3.554,-11.524c-0.072,-0.216 -0.144,-0.431 -0.216,-0.647c-0.828,-2.476 -2.771,-4.42 -5.247,-5.25c-2.449,-0.818 -4.909,-1.605 -7.379,-2.361c-6.064,-1.858 -12.184,-3.532 -18.345,-5.039c-2.757,-0.674 -5.523,-1.315 -8.295,-1.924Z" style="fill:#faf3d2;stroke:#e9e9e9;stroke-width:1px;"/><path d="M194.864,102.052c-3.865,-0.146 -7.321,2.391 -8.34,6.123c-0.378,1.378 -0.747,2.759 -1.107,4.142c-1.095,4.2 -2.116,8.42 -3.066,12.655c-0.117,0.526 0.009,1.076 0.344,1.497c0.334,0.422 0.842,0.67 1.38,0.675c0,0 0.001,0 0.001,0c8.447,0.08 16.891,0.492 25.303,1.257c1.706,0.155 3.412,0.324 5.115,0.509c4.226,0.455 8.116,-2.348 9.021,-6.501c0.963,-4.39 1.999,-8.765 3.109,-13.12c0.28,-1.09 0.079,-2.247 -0.553,-3.178c-0.632,-0.931 -1.633,-1.545 -2.748,-1.688c-0.001,0 -0.001,0 -0.001,0c-9.445,-1.207 -18.943,-1.989 -28.458,-2.371Z" style="fill:#faf3d2;stroke:#e9e9e9;stroke-width:1px;"/><path d="M484.27,82.149c-2.724,-0.178 -5.363,0.991 -7.06,3.13c-1.697,2.139 -2.237,4.975 -1.444,7.587c0.1,0.339 0.203,0.677 0.305,1.016c0.771,2.562 1.513,5.132 2.228,7.71c0.938,3.388 3.904,5.82 7.409,6.078c7.058,0.529 14.102,1.24 21.121,2.143c1.907,0.246 3.811,0.505 5.714,0.779c2.812,0.402 5.635,-0.659 7.487,-2.814c1.852,-2.154 2.477,-5.104 1.657,-7.825c-0.479,-1.598 -0.971,-3.192 -1.474,-4.783c-0.566,-1.79 -1.148,-3.575 -1.745,-5.355c-0.868,-2.579 -3.124,-4.443 -5.821,-4.807c0,-0.001 0,-0.001 0,-0.001c-9.423,-1.272 -18.889,-2.219 -28.377,-2.858Z" style="fill:#faf3d2;stroke:#e9e9e9;stroke-width:1px;"/><path d="M308.151,107.52c0.005,0.123 0.075,0.234 0.184,0.289c0.11,0.056 0.241,0.047 0.342,-0.022c0,0 0,0 0,0c1.771,-1.207 3.563,-2.383 5.375,-3.528c3.082,-1.948 6.221,-3.807 9.407,-5.58c1.241,-0.689 1.825,-2.156 1.397,-3.509c0,0 0,0 0,0c-1.911,-6.043 -3.997,-12.031 -6.29,-17.94c0,0 0,0 0,0c-0.014,-0.035 -0.041,-0.062 -0.076,-0.076c-0.035,-0.013 -0.074,-0.01 -0.107,0.007c-2.273,1.188 -4.526,2.413 -6.757,3.676c-2.722,1.545 -4.347,4.486 -4.206,7.612c0.076,1.712 0.149,3.425 0.22,5.138c0.19,4.644 0.359,9.288 0.511,13.933Z" style="fill:#faf3d2;stroke:#e9e9e9;stroke-width:1px;"/><path d="M451.363,82.908c-0.385,-1.055 -1.393,-1.752 -2.515,-1.739c-0.001,0 -0.001,0 -0.001,0c-3.425,0.039 -6.85,0.116 -10.274,0.232c-5.851,0.199 -11.699,0.512 -17.539,0.942c-2.518,0.189 -4.814,1.51 -6.242,3.593c-1.428,2.082 -1.832,4.701 -1.1,7.117c0.082,0.277 0.166,0.553 0.249,0.829c0.754,2.506 1.481,5.02 2.181,7.542c1.059,3.811 4.654,6.351 8.6,6.074c4.442,-0.307 8.888,-0.543 13.337,-0.709c3.226,-0.12 6.454,-0.203 9.682,-0.25c1.626,-0.024 3.253,-0.037 4.879,-0.043c0.005,0 0.009,0 0.014,-0.001c0.684,-0.001 1.367,-0.002 2.051,-0.001l0.007,0c0.996,0.002 1.934,-0.465 2.533,-1.261c0.598,-0.796 0.787,-1.827 0.509,-2.783c-0.711,-2.435 -1.448,-4.862 -2.213,-7.28c-1.302,-4.115 -2.684,-8.205 -4.158,-12.262Z" style="fill:#faf3d2;stroke:#e9e9e9;stroke-width:1px;"/><path d="M129.881,100.186c-0.08,0.265 -0.012,0.553 0.178,0.754c0.19,0.202 0.472,0.288 0.742,0.226c0,0 0.001,-0.001 0.001,-0.001c12.24,-2.833 24.732,-4.56 37.275,-5.26c0,0 0,0 0,0c0.684,-0.039 1.27,-0.502 1.465,-1.158c1.092,-3.66 2.241,-7.302 3.452,-10.924c0.001,0 0.001,0 0.001,-0.001c0.736,-2.2 0.331,-4.622 -1.082,-6.463c-1.412,-1.841 -3.647,-2.86 -5.963,-2.719c-1.296,0.079 -2.593,0.166 -3.888,0.264c-6.649,0.5 -13.279,1.267 -19.865,2.309c-2.972,0.479 -5.454,2.526 -6.49,5.353c-1.294,3.545 -2.517,7.117 -3.677,10.708c-0.742,2.296 -1.458,4.6 -2.149,6.912Z" style="fill:#faf3d2;stroke:#e9e9e9;stroke-width:1px;"/><path d="M199.086,74.838c-0.873,-0.062 -1.684,0.451 -2.005,1.265c0,0 0,0 0,0c-2.224,5.656 -4.255,11.388 -6.124,17.171c0,0 0,0 0,0c-0.188,0.582 -0.094,1.218 0.254,1.721c0.347,0.502 0.909,0.815 1.52,0.844c7.073,0.357 14.13,1.041 21.137,2.063c2.579,0.377 5.151,0.799 7.714,1.268c4.165,0.763 8.238,-1.724 9.463,-5.777c0.971,-3.204 1.985,-6.395 3.047,-9.57c0,0 0,0 0,-0.001c0.311,-0.928 0.211,-1.945 -0.276,-2.795c-0.486,-0.849 -1.311,-1.451 -2.269,-1.654c-2.528,-0.533 -5.065,-1.023 -7.609,-1.472c-8.223,-1.451 -16.523,-2.466 -24.852,-3.063Z" style="fill:#faf3d2;stroke:#e9e9e9;stroke-width:1px;"/><path d="M534.811,56.179c-1.673,-0.437 -3.448,0.115 -4.579,1.423c-1.131,1.307 -1.42,3.144 -0.747,4.736c-0.001,0.002 -0.001,0.002 -0.001,0.003c2.013,4.756 3.885,9.572 5.636,14.431c0,0 0.001,0 0.001,0c0.412,1.144 1.344,2.024 2.509,2.37c2.548,0.76 5.084,1.558 7.607,2.395c8.158,2.708 16.18,5.828 24.001,9.394c2.891,1.319 5.754,2.698 8.585,4.14c0.343,0.175 0.758,0.12 1.044,-0.138c0.286,-0.258 0.382,-0.666 0.242,-1.025c0,-0.001 -0.001,-0.002 -0.001,-0.002c-1.077,-2.757 -2.21,-5.493 -3.41,-8.199c-1.151,-2.596 -2.363,-5.165 -3.657,-7.693c-1.007,-1.967 -2.064,-3.91 -3.191,-5.811c-0.979,-1.651 -2.01,-3.274 -3.141,-4.826c-0.002,-0.002 -0.004,-0.004 -0.005,-0.006c0,0 0,0 0,0c-0.183,-0.249 -0.406,-0.467 -0.66,-0.644c-0.531,-0.37 -1.069,-0.733 -1.603,-1.099c-0.559,-0.384 -1.161,-0.698 -1.796,-0.936c-2.041,-0.765 -4.091,-1.504 -6.149,-2.219c-6.811,-2.364 -13.714,-4.458 -20.685,-6.294Z" style="fill:#faf3d2;stroke:#e9e9e9;stroke-width:1px;"/><path d="M380.072,60.9c-1.612,-3.375 -5.406,-5.115 -9.016,-4.135c0,0 0,0 -0.001,0c-9.163,2.49 -18.207,5.429 -27.067,8.848c0,0 -0.001,0 -0.001,0c-4.034,1.556 -6.08,6.055 -4.601,10.118c0.127,0.347 0.252,0.694 0.378,1.041c0.436,1.211 0.866,2.426 1.288,3.642c0.74,2.129 2.313,3.867 4.358,4.815c2.045,0.949 4.387,1.027 6.491,0.217c2.92,-1.125 5.863,-2.192 8.824,-3.204c5.347,-1.826 10.755,-3.474 16.209,-4.95c2.353,-0.633 4.31,-2.266 5.354,-4.468c1.045,-2.201 1.071,-4.75 0.072,-6.973c-0.496,-1.116 -1.004,-2.226 -1.522,-3.332c-0.253,-0.541 -0.508,-1.08 -0.766,-1.619Z" style="fill:#faf3d2;stroke:#e9e9e9;stroke-width:1px;"/><path d="M461.026,46.045c-0.82,-0.017 -1.589,0.396 -2.028,1.088c-0.44,0.693 -0.485,1.564 -0.121,2.299c0.068,0.136 0.135,0.272 0.203,0.408c2.03,4.107 3.927,8.281 5.712,12.501c0.384,0.907 0.763,1.817 1.137,2.728c0.628,1.531 2.083,2.561 3.735,2.644c0.001,0 0.001,0 0.001,0c14.009,0.702 27.975,2.354 41.748,5.02c0,0 0,0 0.001,0c0.154,0.03 0.312,-0.027 0.412,-0.149c0.1,-0.121 0.125,-0.288 0.065,-0.434c-1.338,-3.241 -2.744,-6.455 -4.231,-9.631c-1.987,-4.246 -4.116,-8.428 -6.44,-12.499c0,-0.001 -0.001,-0.001 -0.001,-0.001c-0.26,-0.456 -0.717,-0.767 -1.237,-0.841c-9.245,-1.31 -18.549,-2.211 -27.871,-2.717c-3.693,-0.2 -7.388,-0.339 -11.085,-0.416c0,0 0,0 0,0Z" style="fill:#faf3d2;stroke:#e9e9e9;stroke-width:1px;"/><path d="M435.415,48.106c-0.569,-0.962 -1.631,-1.522 -2.746,-1.45c0,-0.001 0,-0.001 0,-0.001c-10.948,0.704 -21.862,1.955 -32.68,3.777c0,0 -0.001,0 -0.001,0.001c-0.598,0.1 -1.115,0.476 -1.395,1.014c-0.281,0.538 -0.292,1.177 -0.032,1.725c1.433,3.026 2.797,6.085 4.101,9.169c0.378,0.893 0.751,1.788 1.12,2.686c1.444,3.512 5.081,5.6 8.842,5.077c8.463,-1.156 16.977,-1.943 25.507,-2.378c0.58,-0.029 1.16,-0.057 1.741,-0.084c1.2,-0.055 2.295,-0.705 2.916,-1.734c0.622,-1.029 0.69,-2.3 0.18,-3.389c0,0 0,0 0,0c-1.987,-4.246 -4.116,-8.428 -6.44,-12.499c-0.366,-0.641 -0.737,-1.279 -1.113,-1.914Z" style="fill:#faf3d2;stroke:#e9e9e9;stroke-width:1px;"/><path d="M569.708,69.458c0.023,0.012 0.039,0.035 0.042,0.061c0.004,0.027 -0.005,0.053 -0.023,0.072c-0.567,-0.384 -1.155,-0.731 -1.732,-1.094c-0.003,-0.002 -0.006,-0.004 -0.009,-0.006c0,0 0,0 0,0c0.574,0.322 1.148,0.645 1.722,0.967Z" style="fill:#faf3d2;stroke:#e9e9e9;stroke-width:1px;"/></g></g></svg>